<?xml version="1.0" encoding="utf-8"?>
<!-- Generator: Adobe Illustrator 15.1.0, SVG Export Plug-In . SVG Version: 6.00 Build 0)  -->
<!DOCTYPE svg PUBLIC "-//W3C//DTD SVG 1.1//EN" "http://www.w3.org/Graphics/SVG/1.1/DTD/svg11.dtd">
<svg version="1.1" id="Layer_1" xmlns="http://www.w3.org/2000/svg" xmlns:xlink="http://www.w3.org/1999/xlink" x="0px" y="0px"
	 width="1212px" height="394.337px" viewBox="0 0 1212 394.337" enable-background="new 0 0 1212 394.337" xml:space="preserve">
<rect x="-122" y="840.848" fill="#022E4C" width="1212" height="397"/>
<g>
	<path fill="#003F72" stroke="#003F72" stroke-width="3" stroke-miterlimit="10" d="M2933.179,0h124.936l-11.25,35.158h-70.717
		v43.314h57.161l-11.25,34.876h-45.911v76.221h-42.969V33.92V0z"/>
	<path fill="#003F72" stroke="#003F72" stroke-width="3" stroke-miterlimit="10" d="M3070.453,145.692
		c11.307,5.906,29.399,11.813,47.773,11.813c19.787,0,30.248-8.156,30.248-20.813c0-11.532-9.047-18.563-31.943-26.439
		c-31.662-11.25-52.58-28.688-52.58-56.532c0-32.345,27.42-56.813,72.086-56.813c21.766,0,38.564,4.219,49.871,9.563l-10.86,34.313
		c-7.351-3.656-21.202-9-39.577-9c-18.658,0-27.703,8.72-27.703,18.283c0,12.093,10.459,17.438,35.336,27
		c33.64,12.375,49.188,29.814,49.188,56.815c0,31.781-24.311,58.781-76.608,58.781c-21.768,0-45.752-7.155-56.494-13.063
		L3070.453,145.692z"/>
	<path fill="#003F72" stroke="#003F72" stroke-width="3" stroke-miterlimit="10" d="M3362.255,182.006
		c-7.632,3.656-29.476,10.655-52.372,10.655c-65.866,0-99.789-41.063-99.789-95.345c0-64.69,46.36-100.409,104.029-100.409
		c22.332,0,40.544,5.749,48.176,9.688l-10.295,32.501c-8.482-3.657-20.638-7.031-36.185-7.031c-33.923,0-60.495,20.531-60.495,63
		c0,37.97,22.614,61.877,60.778,61.877c13.286,0,27.419-2.532,36.185-6.188L3362.255,182.006z"/>
</g>
<polygon fill="#003F72" points="1721,-777.399 1655.056,-669.318 1684.788,-646.528 1721,-603.589 "/>
<text transform="matrix(1.0051 0 0 1 2054.2871 1311.5742)"><tspan x="0" y="0" fill="#003F72" font-family="'Myriad-Bold'" font-size="80">S</tspan><tspan x="43.199" y="0" fill="#003F72" font-family="'Myriad-Bold'" font-size="67.5">E</tspan><tspan x="79.244" y="0" fill="#003F72" font-family="'Myriad-Bold'" font-size="67.5" letter-spacing="0.995">RVICES</tspan></text>
<g>
	<path fill="#003F72" d="M2016.835,1180.853h37.05l-3,10h-21.827v12.32h18.46l-3,9.92h-15.46v21.681h-12.223V1180.853z"/>
	<path fill="#003F72" d="M2068.679,1189.275v45.498h-10.313v-45.498H2068.679z"/>
	<path fill="#003F72" d="M2077.633,1234.773v-45.498h12.075l9.498,16.674c2.714,4.793,5.359,10.463,7.463,15.594h0.136
		c-0.611-6.009-0.814-12.151-0.814-19.037v-13.23h9.498v45.498h-10.855l-9.769-17.551c-2.714-4.929-5.767-10.733-7.938-16.066
		h-0.271c0.34,6.075,0.476,12.488,0.476,19.914v13.703H2077.633z"/>
	<path fill="#003F72" d="M2136.723,1223.095l-3.188,11.679h-10.719l13.976-45.498h13.5l14.246,45.498h-11.126l-3.527-11.679
		H2136.723z M2148.323,1215.399l-2.849-9.653c-0.747-2.7-1.561-6.143-2.239-8.775h-0.203c-0.611,2.7-1.357,6.143-2.035,8.775
		l-2.782,9.653H2148.323z"/>
	<path fill="#003F72" d="M2172.34,1234.773v-45.498h12.075l9.498,16.674c2.714,4.793,5.359,10.463,7.463,15.594h0.136
		c-0.611-6.009-0.814-12.151-0.814-19.037v-13.23h9.498v45.498h-10.855l-9.769-17.551c-2.714-4.929-5.767-10.733-7.938-16.066
		h-0.271c0.34,6.075,0.476,12.488,0.476,19.914v13.703H2172.34z"/>
	<path fill="#003F72" d="M2254.359,1233.559c-1.831,0.877-6.173,1.957-11.668,1.957c-15.807,0-23.948-9.855-23.948-22.884
		c0-15.526,11.126-24.1,24.966-24.1c5.359,0,9.43,1.08,11.262,2.025l-2.171,8.101c-2.035-0.877-4.952-1.688-8.684-1.688
		c-8.142,0-14.519,4.928-14.519,15.121c0,9.113,5.428,14.852,14.586,14.852c3.188,0,6.581-0.608,8.684-1.485L2254.359,1233.559z"/>
	<path fill="#003F72" d="M2273.288,1189.275v45.498h-10.313v-45.498H2273.288z"/>
	<path fill="#003F72" d="M2294.521,1223.095l-3.188,11.679h-10.719l13.976-45.498h13.5l14.246,45.498h-11.126l-3.527-11.679
		H2294.521z M2306.122,1215.399l-2.849-9.653c-0.747-2.7-1.561-6.143-2.239-8.775h-0.203c-0.611,2.7-1.357,6.143-2.035,8.775
		l-2.782,9.653H2306.122z"/>
	<path fill="#003F72" d="M2330.207,1189.275h10.313v36.857h18.181v8.641h-28.493V1189.275z"/>
</g>
<text transform="matrix(1.0051 0 0 1 2108.2871 1387.8457)"><tspan x="0" y="0" fill="#003F72" font-family="'Myriad-Bold'" font-size="80">C</tspan><tspan x="47.599" y="0" fill="#003F72" font-family="'Myriad-Bold'" font-size="67.5">E</tspan><tspan x="83.644" y="0" fill="#003F72" font-family="'Myriad-Bold'" font-size="67.5" letter-spacing="0.995">NTER</tspan></text>
<path fill="#0083BE" d="M1924.264-880.152"/>
<polyline fill="#003F72" points="2042.848,1259.434 1972.078,1310.566 1999.709,1393.673 1929.017,1342.01 1859.704,1392.954 
	1886.74,1309.771 1816.553,1259.21 1902.265,1258.928 1928.652,1177.148 1955.585,1259.338 2042.848,1259.434 "/>
<polygon fill="#003F72" stroke="#FFFFFF" stroke-width="3" stroke-miterlimit="10" points="2042.741,1259.774 1887.116,1310.398 
	1859.929,1391.962 "/>
<polygon fill="#C4262E" stroke="#FFFFFF" stroke-width="3" stroke-miterlimit="10" points="2042.568,1259.824 1886.566,1309.271 
	1816.976,1258.785 "/>
<polygon fill="#FFFFFF" stroke="#C4262E" stroke-width="3" stroke-miterlimit="10" points="1985.449,1268.506 1891.849,1298.174 
	1850.094,1267.883 "/>
<g>
	<path fill="#003F72" stroke="#003F72" stroke-width="3" stroke-miterlimit="10" d="M2937.179-790h124.936l-11.25,35.158h-70.717
		v43.314h57.161l-11.25,34.876h-45.911v76.221h-42.969V-756.08V-790z"/>
	<path fill="#003F72" stroke="#003F72" stroke-width="3" stroke-miterlimit="10" d="M3074.453-644.308
		c11.307,5.906,29.399,11.813,47.773,11.813c19.787,0,30.248-8.156,30.248-20.813c0-11.532-9.047-18.563-31.943-26.439
		c-31.662-11.25-52.58-28.688-52.58-56.532c0-32.345,27.42-56.813,72.086-56.813c21.766,0,38.564,4.219,49.871,9.563l-10.86,34.313
		c-7.351-3.656-21.202-9-39.577-9c-18.658,0-27.703,8.72-27.703,18.283c0,12.093,10.459,17.438,35.336,27
		c33.64,12.375,49.188,29.814,49.188,56.815c0,31.781-24.311,58.781-76.608,58.781c-21.768,0-45.752-7.155-56.494-13.063
		L3074.453-644.308z"/>
	<path fill="#003F72" stroke="#003F72" stroke-width="3" stroke-miterlimit="10" d="M3366.255-607.994
		c-7.632,3.656-29.476,10.655-52.372,10.655c-65.866,0-99.789-41.063-99.789-95.345c0-64.69,46.36-100.409,104.029-100.409
		c22.332,0,40.544,5.749,48.176,9.688l-10.295,32.501c-8.482-3.657-20.638-7.031-36.185-7.031c-33.923,0-60.495,20.531-60.495,63
		c0,37.97,22.614,61.877,60.778,61.877c13.286,0,27.419-2.532,36.185-6.188L3366.255-607.994z"/>
</g>
<polyline fill="#C4262E" points="2971.94,-706.588 2914.576,-664.932 2914.18,-599.196 2878.626,-640.528 2809.676,-599.772 
	2847.056,-666.318 2790.905,-706.768 2866.975,-706.993 2909.836,-772.416 2909.631,-706.665 2971.94,-706.588 "/>
<text transform="matrix(1.0051 0 0 1 3482.7803 -662.9766)"><tspan x="0" y="0" fill="#003F72" font-family="'Myriad-Bold'" font-size="80">S</tspan><tspan x="43.2" y="0" fill="#003F72" font-family="'Myriad-Bold'" font-size="67.5">E</tspan><tspan x="79.244" y="0" fill="#003F72" font-family="'Myriad-Bold'" font-size="67.5" letter-spacing="0.995">RVICES</tspan></text>
<text transform="matrix(1.0051 0 0 1 3485.9404 -739.7773)"><tspan x="0" y="0" fill="#003F72" font-family="'Myriad-Bold'" font-size="80">F</tspan><tspan x="42.16" y="0" fill="#003F72" font-family="'Myriad-Bold'" font-size="67.5">I</tspan><tspan x="61.396" y="0" fill="#003F72" font-family="'Myriad-Bold'" font-size="67.5" letter-spacing="0.995">NANCIAL</tspan></text>
<text transform="matrix(1.0051 0 0 1 3482.7803 -586.7051)"><tspan x="0" y="0" fill="#003F72" font-family="'Myriad-Bold'" font-size="80">C</tspan><tspan x="47.599" y="0" fill="#003F72" font-family="'Myriad-Bold'" font-size="67.5">E</tspan><tspan x="83.643" y="0" fill="#003F72" font-family="'Myriad-Bold'" font-size="67.5" letter-spacing="0.995">NTER</tspan></text>
<line fill="none" stroke="#003F72" stroke-width="3" stroke-miterlimit="10" x1="3435.5" y1="-831.152" x2="3435.5" y2="-532.152"/>
<g>
	<path stroke="#003F72" stroke-width="3" stroke-miterlimit="10" d="M2946.179-419h124.936l-11.25,35.158h-70.717v43.314h57.161
		l-11.25,34.876h-45.911v76.221h-42.969V-385.08V-419z"/>
	<path stroke="#003F72" stroke-width="3" stroke-miterlimit="10" d="M3083.453-273.308c11.307,5.906,29.399,11.813,47.773,11.813
		c19.787,0,30.248-8.156,30.248-20.813c0-11.532-9.047-18.563-31.943-26.439c-31.662-11.25-52.58-28.688-52.58-56.532
		c0-32.345,27.42-56.813,72.086-56.813c21.766,0,38.564,4.219,49.871,9.563l-10.86,34.313c-7.351-3.656-21.202-9-39.577-9
		c-18.658,0-27.703,8.72-27.703,18.283c0,12.093,10.459,17.438,35.336,27c33.64,12.375,49.188,29.814,49.188,56.815
		c0,31.781-24.311,58.781-76.608,58.781c-21.768,0-45.752-7.155-56.494-13.063L3083.453-273.308z"/>
	<path stroke="#003F72" stroke-width="3" stroke-miterlimit="10" d="M3375.255-236.994c-7.632,3.656-29.476,10.655-52.372,10.655
		c-65.866,0-99.789-41.063-99.789-95.345c0-64.69,46.36-100.409,104.029-100.409c22.332,0,40.544,5.749,48.176,9.688l-10.295,32.501
		c-8.482-3.657-20.638-7.031-36.185-7.031c-33.923,0-60.495,20.531-60.495,63c0,37.97,22.614,61.877,60.778,61.877
		c13.286,0,27.419-2.532,36.185-6.188L3375.255-236.994z"/>
</g>
<polyline points="2980.94,-335.588 2923.576,-293.932 2923.18,-228.196 2887.626,-269.528 2818.676,-228.772 2856.056,-295.318 
	2799.905,-335.768 2875.975,-335.993 2918.836,-401.416 2918.631,-335.665 2980.94,-335.588 "/>
<text transform="matrix(1.0051 0 0 1 3491.7803 -291.9766)"><tspan x="0" y="0" font-family="'Myriad-Bold'" font-size="80">S</tspan><tspan x="43.199" y="0" font-family="'Myriad-Bold'" font-size="67.5">E</tspan><tspan x="79.244" y="0" font-family="'Myriad-Bold'" font-size="67.5" letter-spacing="0.995">RVICES</tspan></text>
<text transform="matrix(1.0051 0 0 1 3494.9404 -368.7773)"><tspan x="0" y="0" font-family="'Myriad-Bold'" font-size="80">F</tspan><tspan x="42.16" y="0" font-family="'Myriad-Bold'" font-size="67.5">I</tspan><tspan x="61.396" y="0" font-family="'Myriad-Bold'" font-size="67.5" letter-spacing="0.995">NANCIAL</tspan></text>
<text transform="matrix(1.0051 0 0 1 3491.7803 -215.7051)"><tspan x="0" y="0" font-family="'Myriad-Bold'" font-size="80">C</tspan><tspan x="47.599" y="0" font-family="'Myriad-Bold'" font-size="67.5">E</tspan><tspan x="83.643" y="0" font-family="'Myriad-Bold'" font-size="67.5" letter-spacing="0.995">NTER</tspan></text>
<line stroke="#000000" stroke-width="3" stroke-miterlimit="10" x1="3444.5" y1="-460.152" x2="3444.5" y2="-161.152"/>
<text transform="matrix(1.0051 0 0 1 4620.2871 -660.4258)"><tspan x="0" y="0" fill="#003F72" font-family="'Myriad-Bold'" font-size="80">S</tspan><tspan x="43.199" y="0" fill="#003F72" font-family="'Myriad-Bold'" font-size="67.5">E</tspan><tspan x="79.244" y="0" fill="#003F72" font-family="'Myriad-Bold'" font-size="67.5" letter-spacing="0.995">RVICES</tspan></text>
<text transform="matrix(1.0051 0 0 1 4577.4473 -737.2266)"><tspan x="0" y="0" fill="#003F72" font-family="'Myriad-Bold'" font-size="80">F</tspan><tspan x="42.16" y="0" fill="#003F72" font-family="'Myriad-Bold'" font-size="67.5">I</tspan><tspan x="61.396" y="0" fill="#003F72" font-family="'Myriad-Bold'" font-size="67.5" letter-spacing="0.995">NANCIAL</tspan></text>
<text transform="matrix(1.0051 0 0 1 4674.2871 -584.1543)"><tspan x="0" y="0" fill="#003F72" font-family="'Myriad-Bold'" font-size="80">C</tspan><tspan x="47.599" y="0" fill="#003F72" font-family="'Myriad-Bold'" font-size="67.5">E</tspan><tspan x="83.643" y="0" fill="#003F72" font-family="'Myriad-Bold'" font-size="67.5" letter-spacing="0.995">NTER</tspan></text>
<polyline fill="#003F72" points="4608.848,-712.566 4538.078,-661.434 4565.709,-578.327 4495.017,-629.99 4425.704,-579.046 
	4452.74,-662.229 4382.553,-712.79 4468.265,-713.072 4494.652,-794.852 4521.586,-712.662 4608.848,-712.566 "/>
<polygon fill="#C4262E" stroke="#FFFFFF" stroke-width="3" stroke-miterlimit="10" points="4608.741,-712.226 4453.116,-661.602 
	4425.929,-580.038 "/>
<polygon fill="#FFFFFF" stroke="#C4262E" stroke-width="2" stroke-miterlimit="10" points="4557.794,-686.324 4464.418,-655.949 
	4448.106,-607.012 "/>
<polygon fill="#003F72" stroke="#FFFFFF" stroke-width="3" stroke-miterlimit="10" points="4608.568,-712.176 4452.566,-662.729 
	4382.976,-713.215 "/>
<text transform="matrix(1.0051 0 0 1 4611.2871 -279.4258)"><tspan x="0" y="0" font-family="'Myriad-Bold'" font-size="80">S</tspan><tspan x="43.199" y="0" font-family="'Myriad-Bold'" font-size="67.5">E</tspan><tspan x="79.244" y="0" font-family="'Myriad-Bold'" font-size="67.5" letter-spacing="0.995">RVICES</tspan></text>
<text transform="matrix(1.0051 0 0 1 4568.4473 -356.2266)"><tspan x="0" y="0" font-family="'Myriad-Bold'" font-size="80">F</tspan><tspan x="42.16" y="0" font-family="'Myriad-Bold'" font-size="67.5">I</tspan><tspan x="61.396" y="0" font-family="'Myriad-Bold'" font-size="67.5" letter-spacing="0.995">NANCIAL</tspan></text>
<text transform="matrix(1.0051 0 0 1 4665.2871 -203.1543)"><tspan x="0" y="0" font-family="'Myriad-Bold'" font-size="80">C</tspan><tspan x="47.599" y="0" font-family="'Myriad-Bold'" font-size="67.5">E</tspan><tspan x="83.643" y="0" font-family="'Myriad-Bold'" font-size="67.5" letter-spacing="0.995">NTER</tspan></text>
<polyline points="4599.848,-331.566 4529.078,-280.434 4556.709,-197.327 4486.017,-248.99 4416.704,-198.046 4443.74,-281.229 
	4373.553,-331.79 4459.265,-332.072 4485.652,-413.852 4512.586,-331.662 4599.848,-331.566 "/>
<polygon stroke="#FFFFFF" stroke-width="3" stroke-miterlimit="10" points="4599.741,-331.226 4444.116,-280.602 4416.929,-199.038 
	"/>
<polygon fill="#FFFFFF" stroke="#000000" stroke-width="2" stroke-miterlimit="10" points="4548.794,-305.324 4455.418,-274.949 
	4439.106,-226.012 "/>
<polygon stroke="#FFFFFF" stroke-width="3" stroke-miterlimit="10" points="4599.568,-331.176 4443.566,-281.729 4373.976,-332.215 
	"/>
<text transform="matrix(1.0051 0 0 1 5391.2871 -660.4258)"><tspan x="0" y="0" font-family="'Myriad-Bold'" font-size="80">S</tspan><tspan x="43.199" y="0" font-family="'Myriad-Bold'" font-size="67.5">E</tspan><tspan x="79.244" y="0" font-family="'Myriad-Bold'" font-size="67.5" letter-spacing="0.995">RVICES</tspan></text>
<g>
	<path d="M5353.836-791.147h37.049l-3,10h-21.827v12.32h18.46l-3,9.92h-15.46v21.681h-12.222V-791.147z"/>
	<path d="M5405.679-782.725v45.498h-10.313v-45.498H5405.679z"/>
	<path d="M5414.633-737.227v-45.498h12.076l9.497,16.674c2.714,4.793,5.359,10.463,7.463,15.594h0.136
		c-0.611-6.009-0.814-12.151-0.814-19.037v-13.23h9.498v45.498h-10.855l-9.769-17.551c-2.714-4.929-5.767-10.733-7.938-16.066
		h-0.271c0.34,6.075,0.476,12.488,0.476,19.914v13.703H5414.633z"/>
	<path d="M5473.723-748.905l-3.188,11.679h-10.719l13.976-45.498h13.5l14.246,45.498h-11.126l-3.527-11.679H5473.723z
		 M5485.323-756.601l-2.849-9.653c-0.747-2.7-1.561-6.143-2.239-8.775h-0.203c-0.611,2.7-1.357,6.143-2.035,8.775l-2.782,9.653
		H5485.323z"/>
	<path d="M5509.34-737.227v-45.498h12.076l9.497,16.674c2.714,4.793,5.359,10.463,7.464,15.594h0.135
		c-0.611-6.009-0.814-12.151-0.814-19.037v-13.23h9.498v45.498h-10.855l-9.769-17.551c-2.714-4.929-5.767-10.733-7.938-16.066
		h-0.271c0.34,6.075,0.476,12.488,0.476,19.914v13.703H5509.34z"/>
	<path d="M5591.359-738.441c-1.831,0.877-6.173,1.957-11.668,1.957c-15.807,0-23.948-9.855-23.948-22.884
		c0-15.526,11.126-24.1,24.966-24.1c5.359,0,9.43,1.08,11.262,2.025l-2.171,8.101c-2.035-0.877-4.952-1.688-8.684-1.688
		c-8.142,0-14.519,4.928-14.519,15.121c0,9.113,5.428,14.852,14.586,14.852c3.188,0,6.581-0.608,8.684-1.485L5591.359-738.441z"/>
	<path d="M5610.288-782.725v45.498h-10.313v-45.498H5610.288z"/>
	<path d="M5631.521-748.905l-3.188,11.679h-10.72l13.976-45.498h13.5l14.246,45.498h-11.126l-3.527-11.679H5631.521z
		 M5643.122-756.601l-2.849-9.653c-0.747-2.7-1.561-6.143-2.239-8.775h-0.203c-0.611,2.7-1.357,6.143-2.035,8.775l-2.782,9.653
		H5643.122z"/>
	<path d="M5667.207-782.725h10.313v36.857h18.181v8.641h-28.493V-782.725z"/>
</g>
<text transform="matrix(1.0051 0 0 1 5445.2871 -584.1543)"><tspan x="0" y="0" font-family="'Myriad-Bold'" font-size="80">C</tspan><tspan x="47.599" y="0" font-family="'Myriad-Bold'" font-size="67.5">E</tspan><tspan x="83.643" y="0" font-family="'Myriad-Bold'" font-size="67.5" letter-spacing="0.995">NTER</tspan></text>
<polyline points="5379.848,-712.566 5309.078,-661.434 5336.709,-578.327 5266.017,-629.99 5196.704,-579.046 5223.74,-662.229 
	5153.553,-712.79 5239.265,-713.072 5265.652,-794.852 5292.586,-712.662 5379.848,-712.566 "/>
<polygon stroke="#FFFFFF" stroke-width="3" stroke-miterlimit="10" points="5379.741,-712.226 5224.116,-661.602 5196.929,-580.038 
	"/>
<polygon stroke="#FFFFFF" stroke-width="3" stroke-miterlimit="10" points="5379.568,-712.176 5223.566,-662.729 5153.976,-713.215 
	"/>
<polygon fill="#FFFFFF" stroke="#000000" stroke-width="3" stroke-miterlimit="10" points="5322.449,-703.494 5228.849,-673.826 
	5187.094,-704.117 "/>
<text transform="matrix(1.0051 0 0 1 5410.2871 -268.4258)"><tspan x="0" y="0" fill="#003F72" font-family="'Myriad-Bold'" font-size="80">S</tspan><tspan x="43.2" y="0" fill="#003F72" font-family="'Myriad-Bold'" font-size="67.5">E</tspan><tspan x="79.244" y="0" fill="#003F72" font-family="'Myriad-Bold'" font-size="67.5" letter-spacing="0.995">RVICES</tspan></text>
<g>
	<path fill="#003F72" d="M5372.836-399.147h37.049l-3,10h-21.827v12.32h18.46l-3,9.92h-15.46v21.681h-12.222V-399.147z"/>
	<path fill="#003F72" d="M5424.679-390.725v45.498h-10.313v-45.498H5424.679z"/>
	<path fill="#003F72" d="M5433.633-345.227v-45.498h12.076l9.497,16.674c2.714,4.793,5.359,10.463,7.463,15.594h0.136
		c-0.611-6.009-0.814-12.151-0.814-19.037v-13.23h9.498v45.498h-10.855l-9.769-17.551c-2.714-4.929-5.767-10.733-7.938-16.066
		h-0.271c0.34,6.075,0.476,12.488,0.476,19.914v13.703H5433.633z"/>
	<path fill="#003F72" d="M5492.723-356.905l-3.188,11.679h-10.719l13.976-45.498h13.5l14.246,45.498h-11.126l-3.527-11.679H5492.723
		z M5504.323-364.601l-2.849-9.653c-0.747-2.7-1.561-6.143-2.239-8.775h-0.203c-0.611,2.7-1.357,6.143-2.035,8.775l-2.782,9.653
		H5504.323z"/>
	<path fill="#003F72" d="M5528.34-345.227v-45.498h12.076l9.497,16.674c2.714,4.793,5.359,10.463,7.464,15.594h0.135
		c-0.611-6.009-0.814-12.151-0.814-19.037v-13.23h9.498v45.498h-10.855l-9.769-17.551c-2.714-4.929-5.767-10.733-7.938-16.066
		h-0.271c0.34,6.075,0.476,12.488,0.476,19.914v13.703H5528.34z"/>
	<path fill="#003F72" d="M5610.359-346.441c-1.831,0.877-6.173,1.957-11.668,1.957c-15.807,0-23.948-9.855-23.948-22.884
		c0-15.526,11.126-24.1,24.966-24.1c5.359,0,9.43,1.08,11.262,2.025l-2.171,8.101c-2.035-0.877-4.952-1.688-8.684-1.688
		c-8.142,0-14.519,4.928-14.519,15.121c0,9.113,5.428,14.852,14.586,14.852c3.188,0,6.581-0.608,8.684-1.485L5610.359-346.441z"/>
	<path fill="#003F72" d="M5629.288-390.725v45.498h-10.313v-45.498H5629.288z"/>
	<path fill="#003F72" d="M5650.521-356.905l-3.188,11.679h-10.72l13.976-45.498h13.5l14.246,45.498h-11.126l-3.527-11.679H5650.521z
		 M5662.122-364.601l-2.849-9.653c-0.747-2.7-1.561-6.143-2.239-8.775h-0.203c-0.611,2.7-1.357,6.143-2.035,8.775l-2.782,9.653
		H5662.122z"/>
	<path fill="#003F72" d="M5686.207-390.725h10.313v36.857h18.181v8.641h-28.493V-390.725z"/>
</g>
<text transform="matrix(1.0051 0 0 1 5464.2871 -192.1543)"><tspan x="0" y="0" fill="#003F72" font-family="'Myriad-Bold'" font-size="80">C</tspan><tspan x="47.599" y="0" fill="#003F72" font-family="'Myriad-Bold'" font-size="67.5">E</tspan><tspan x="83.644" y="0" fill="#003F72" font-family="'Myriad-Bold'" font-size="67.5" letter-spacing="0.995">NTER</tspan></text>
<polyline fill="#003F72" points="5398.848,-320.566 5328.078,-269.434 5355.709,-186.327 5285.017,-237.99 5215.704,-187.046 
	5242.74,-270.229 5172.553,-320.79 5258.265,-321.072 5284.652,-402.852 5311.586,-320.662 5398.848,-320.566 "/>
<polygon fill="#003F72" stroke="#FFFFFF" stroke-width="3" stroke-miterlimit="10" points="5398.741,-320.226 5243.116,-269.602 
	5215.929,-188.038 "/>
<polygon fill="#C4262E" stroke="#FFFFFF" stroke-width="3" stroke-miterlimit="10" points="5398.568,-320.176 5242.566,-270.729 
	5172.976,-321.215 "/>
<polygon fill="#FFFFFF" stroke="#C4262E" stroke-width="3" stroke-miterlimit="10" points="5341.449,-311.494 5247.849,-281.826 
	5206.094,-312.117 "/>
<text transform="matrix(1.0051 0 0 1 6109.2871 -654.4258)"><tspan x="0" y="0" fill="#003F72" font-family="'Myriad-Bold'" font-size="80">S</tspan><tspan x="43.199" y="0" fill="#003F72" font-family="'Myriad-Bold'" font-size="67.5">E</tspan><tspan x="79.244" y="0" fill="#003F72" font-family="'Myriad-Bold'" font-size="67.5" letter-spacing="0.995">RVICES</tspan></text>
<text transform="matrix(1.0051 0 0 1 6066.4473 -731.2266)"><tspan x="0" y="0" fill="#003F72" font-family="'Myriad-Bold'" font-size="80">F</tspan><tspan x="42.16" y="0" fill="#003F72" font-family="'Myriad-Bold'" font-size="67.5">I</tspan><tspan x="61.396" y="0" fill="#003F72" font-family="'Myriad-Bold'" font-size="67.5" letter-spacing="0.995">NANCIAL</tspan></text>
<text transform="matrix(1.0051 0 0 1 6163.2871 -578.1543)"><tspan x="0" y="0" fill="#003F72" font-family="'Myriad-Bold'" font-size="80">C</tspan><tspan x="47.599" y="0" fill="#003F72" font-family="'Myriad-Bold'" font-size="67.5">E</tspan><tspan x="83.643" y="0" fill="#003F72" font-family="'Myriad-Bold'" font-size="67.5" letter-spacing="0.995">NTER</tspan></text>
<text transform="matrix(1.0051 0 0 1 6100.2871 -273.4258)"><tspan x="0" y="0" font-family="'Myriad-Bold'" font-size="80">S</tspan><tspan x="43.199" y="0" font-family="'Myriad-Bold'" font-size="67.5">E</tspan><tspan x="79.244" y="0" font-family="'Myriad-Bold'" font-size="67.5" letter-spacing="0.995">RVICES</tspan></text>
<text transform="matrix(1.0051 0 0 1 6057.4473 -350.2266)"><tspan x="0" y="0" font-family="'Myriad-Bold'" font-size="80">F</tspan><tspan x="42.16" y="0" font-family="'Myriad-Bold'" font-size="67.5">I</tspan><tspan x="61.396" y="0" font-family="'Myriad-Bold'" font-size="67.5" letter-spacing="0.995">NANCIAL</tspan></text>
<text transform="matrix(1.0051 0 0 1 6154.2871 -197.1543)"><tspan x="0" y="0" font-family="'Myriad-Bold'" font-size="80">C</tspan><tspan x="47.599" y="0" font-family="'Myriad-Bold'" font-size="67.5">E</tspan><tspan x="83.643" y="0" font-family="'Myriad-Bold'" font-size="67.5" letter-spacing="0.995">NTER</tspan></text>
<polyline points="6088.848,-325.566 6018.078,-274.434 6045.709,-191.327 5975.017,-242.99 5905.704,-192.046 5932.74,-275.229 
	5862.553,-325.79 5948.265,-326.072 5974.652,-407.852 6001.586,-325.662 6088.848,-325.566 "/>
<polygon stroke="#FFFFFF" stroke-width="3" stroke-miterlimit="10" points="6088.741,-325.226 5933.116,-274.602 5905.929,-193.038 
	"/>
<polygon fill="#FFFFFF" stroke="#000000" stroke-width="2" stroke-miterlimit="10" points="6037.794,-299.324 5944.418,-268.949 
	5928.106,-220.012 "/>
<g>
	<path fill="#003F72" stroke="#003F72" stroke-width="3" stroke-miterlimit="10" d="M1745.179-793h124.936l-11.25,35.158h-70.717
		v43.314h57.161l-11.25,34.876h-45.911v76.221h-42.969V-759.08V-793z"/>
	<path fill="#003F72" stroke="#003F72" stroke-width="3" stroke-miterlimit="10" d="M1882.453-647.308
		c11.307,5.906,29.399,11.813,47.773,11.813c19.787,0,30.248-8.156,30.248-20.813c0-11.532-9.047-18.563-31.943-26.439
		c-31.662-11.25-52.58-28.688-52.58-56.532c0-32.345,27.42-56.813,72.086-56.813c21.766,0,38.564,4.219,49.871,9.563l-10.86,34.313
		c-7.351-3.656-21.202-9-39.577-9c-18.658,0-27.703,8.72-27.703,18.283c0,12.093,10.459,17.438,35.336,27
		c33.64,12.375,49.188,29.814,49.188,56.815c0,31.781-24.311,58.781-76.608,58.781c-21.768,0-45.752-7.155-56.494-13.063
		L1882.453-647.308z"/>
	<path fill="#003F72" stroke="#003F72" stroke-width="3" stroke-miterlimit="10" d="M2174.255-610.994
		c-7.632,3.656-29.476,10.655-52.372,10.655c-65.866,0-99.789-41.063-99.789-95.345c0-64.69,46.36-100.409,104.029-100.409
		c22.332,0,40.544,5.749,48.176,9.688l-10.295,32.501c-8.482-3.657-20.638-7.031-36.185-7.031c-33.923,0-60.495,20.531-60.495,63
		c0,37.97,22.614,61.877,60.778,61.877c13.286,0,27.419-2.532,36.185-6.188L2174.255-610.994z"/>
</g>
<text transform="matrix(1.0051 0 0 1 2290.7803 -665.9766)"><tspan x="0" y="0" fill="#003F72" font-family="'Myriad-Bold'" font-size="80">S</tspan><tspan x="43.2" y="0" fill="#003F72" font-family="'Myriad-Bold'" font-size="67.5">E</tspan><tspan x="79.244" y="0" fill="#003F72" font-family="'Myriad-Bold'" font-size="67.5" letter-spacing="0.995">RVICES</tspan></text>
<text transform="matrix(1.0051 0 0 1 2293.9404 -742.7773)"><tspan x="0" y="0" fill="#003F72" font-family="'Myriad-Bold'" font-size="80">F</tspan><tspan x="42.16" y="0" fill="#003F72" font-family="'Myriad-Bold'" font-size="67.5">I</tspan><tspan x="61.396" y="0" fill="#003F72" font-family="'Myriad-Bold'" font-size="67.5" letter-spacing="0.995">NANCIAL</tspan></text>
<text transform="matrix(1.0051 0 0 1 2290.7803 -589.7051)"><tspan x="0" y="0" fill="#003F72" font-family="'Myriad-Bold'" font-size="80">C</tspan><tspan x="47.599" y="0" fill="#003F72" font-family="'Myriad-Bold'" font-size="67.5">E</tspan><tspan x="83.644" y="0" fill="#003F72" font-family="'Myriad-Bold'" font-size="67.5" letter-spacing="0.995">NTER</tspan></text>
<line fill="none" stroke="#003F72" stroke-width="3" stroke-miterlimit="10" x1="2243.5" y1="-834.152" x2="2243.5" y2="-535.152"/>
<g>
	<path stroke="#003F72" stroke-width="3" stroke-miterlimit="10" d="M1754.179-422h124.936l-11.25,35.158h-70.717v43.314h57.161
		l-11.25,34.876h-45.911v76.221h-42.969V-388.08V-422z"/>
	<path stroke="#003F72" stroke-width="3" stroke-miterlimit="10" d="M1891.453-276.308c11.307,5.906,29.399,11.813,47.773,11.813
		c19.787,0,30.248-8.156,30.248-20.813c0-11.532-9.047-18.563-31.943-26.439c-31.662-11.25-52.58-28.688-52.58-56.532
		c0-32.345,27.42-56.813,72.086-56.813c21.766,0,38.564,4.219,49.871,9.563l-10.86,34.313c-7.351-3.656-21.202-9-39.577-9
		c-18.658,0-27.703,8.72-27.703,18.283c0,12.093,10.459,17.438,35.336,27c33.64,12.375,49.188,29.814,49.188,56.815
		c0,31.781-24.311,58.781-76.608,58.781c-21.768,0-45.752-7.155-56.494-13.063L1891.453-276.308z"/>
	<path stroke="#003F72" stroke-width="3" stroke-miterlimit="10" d="M2183.255-239.994c-7.632,3.656-29.476,10.655-52.372,10.655
		c-65.866,0-99.789-41.063-99.789-95.345c0-64.69,46.36-100.409,104.029-100.409c22.332,0,40.544,5.749,48.176,9.688l-10.295,32.501
		c-8.482-3.657-20.638-7.031-36.185-7.031c-33.923,0-60.495,20.531-60.495,63c0,37.97,22.614,61.877,60.778,61.877
		c13.286,0,27.419-2.532,36.185-6.188L2183.255-239.994z"/>
</g>
<polyline points="1788.94,-338.588 1731.576,-296.932 1731.18,-231.196 1695.626,-272.528 1626.676,-231.772 1664.056,-298.318 
	1607.905,-338.768 1683.975,-338.993 1726.836,-404.416 1726.631,-338.665 1788.94,-338.588 "/>
<text transform="matrix(1.0051 0 0 1 2299.7803 -294.9766)"><tspan x="0" y="0" font-family="'Myriad-Bold'" font-size="80">S</tspan><tspan x="43.2" y="0" font-family="'Myriad-Bold'" font-size="67.5">E</tspan><tspan x="79.244" y="0" font-family="'Myriad-Bold'" font-size="67.5" letter-spacing="0.995">RVICES</tspan></text>
<text transform="matrix(1.0051 0 0 1 2302.9404 -371.7773)"><tspan x="0" y="0" font-family="'Myriad-Bold'" font-size="80">F</tspan><tspan x="42.16" y="0" font-family="'Myriad-Bold'" font-size="67.5">I</tspan><tspan x="61.396" y="0" font-family="'Myriad-Bold'" font-size="67.5" letter-spacing="0.995">NANCIAL</tspan></text>
<text transform="matrix(1.0051 0 0 1 2299.7803 -218.7051)"><tspan x="0" y="0" font-family="'Myriad-Bold'" font-size="80">C</tspan><tspan x="47.599" y="0" font-family="'Myriad-Bold'" font-size="67.5">E</tspan><tspan x="83.643" y="0" font-family="'Myriad-Bold'" font-size="67.5" letter-spacing="0.995">NTER</tspan></text>
<line stroke="#000000" stroke-width="3" stroke-miterlimit="10" x1="2252.5" y1="-463.152" x2="2252.5" y2="-164.152"/>
<polygon fill="#C4262E" points="1596.905,-708.768 1653.056,-668.318 1630.346,-627.89 1615.676,-602.336 1616.179,-602.667 
	1615.676,-601.772 1682.626,-645.528 1719,-670.353 1777.94,-709.152 "/>
<polyline fill="#FFFFFF" points="1759.811,-704.977 1638.039,-624.952 1661.959,-667.152 1760,-705.152 "/>
<polygon fill="#C4262E" points="539,-790.399 497.232,-721.943 414.905,-721.768 471.056,-681.318 502.788,-659.528 539,-616.589 
	539,-686.652 595,-722.152 539,-722.402 "/>
<path fill="#0083BE" d="M742.264-893.152"/>
<g>
	<path fill="#003F72" stroke="#003F72" stroke-width="3" stroke-miterlimit="10" d="M563.179-806h124.936l-11.25,35.158h-70.717
		v43.314h57.161l-11.25,34.876h-45.911v76.221h-42.969V-772.08V-806z"/>
	<path fill="#003F72" stroke="#003F72" stroke-width="3" stroke-miterlimit="10" d="M700.453-660.308
		c11.307,5.906,29.399,11.813,47.773,11.813c19.787,0,30.248-8.156,30.248-20.813c0-11.532-9.047-18.563-31.943-26.439
		c-31.662-11.25-52.58-28.688-52.58-56.532c0-32.345,27.42-56.813,72.086-56.813c21.766,0,38.564,4.219,49.871,9.563l-10.86,34.313
		c-7.351-3.656-21.202-9-39.577-9c-18.658,0-27.703,8.72-27.703,18.283c0,12.093,10.459,17.438,35.336,27
		c33.64,12.375,49.188,29.814,49.188,56.815c0,31.781-24.311,58.781-76.608,58.781c-21.768,0-45.752-7.155-56.494-13.063
		L700.453-660.308z"/>
	<path fill="#003F72" stroke="#003F72" stroke-width="3" stroke-miterlimit="10" d="M992.255-623.994
		c-7.632,3.656-29.476,10.655-52.372,10.655c-65.866,0-99.789-41.063-99.789-95.345c0-64.69,46.36-100.409,104.029-100.409
		c22.332,0,40.544,5.749,48.176,9.688l-10.295,32.501c-8.482-3.657-20.638-7.031-36.185-7.031c-33.923,0-60.495,20.531-60.495,63
		c0,37.97,22.614,61.877,60.778,61.877c13.286,0,27.419-2.532,36.185-6.188L992.255-623.994z"/>
</g>
<text transform="matrix(1.0051 0 0 1 1108.7803 -678.9766)"><tspan x="0" y="0" fill="#003F72" font-family="'Myriad-Bold'" font-size="80">S</tspan><tspan x="43.2" y="0" fill="#003F72" font-family="'Myriad-Bold'" font-size="67.5">E</tspan><tspan x="79.244" y="0" fill="#003F72" font-family="'Myriad-Bold'" font-size="67.5" letter-spacing="0.995">RVICES</tspan></text>
<text transform="matrix(1.0051 0 0 1 1111.9404 -755.7773)"><tspan x="0" y="0" fill="#003F72" font-family="'Myriad-Bold'" font-size="80">F</tspan><tspan x="42.16" y="0" fill="#003F72" font-family="'Myriad-Bold'" font-size="67.5">I</tspan><tspan x="61.396" y="0" fill="#003F72" font-family="'Myriad-Bold'" font-size="67.5" letter-spacing="0.995">NANCIAL</tspan></text>
<text transform="matrix(1.0051 0 0 1 1108.7803 -602.7051)"><tspan x="0" y="0" fill="#003F72" font-family="'Myriad-Bold'" font-size="80">C</tspan><tspan x="47.599" y="0" fill="#003F72" font-family="'Myriad-Bold'" font-size="67.5">E</tspan><tspan x="83.643" y="0" fill="#003F72" font-family="'Myriad-Bold'" font-size="67.5" letter-spacing="0.995">NTER</tspan></text>
<line fill="none" stroke="#003F72" stroke-width="3" stroke-miterlimit="10" x1="1061.5" y1="-847.152" x2="1061.5" y2="-548.152"/>
<g>
	<path stroke="#003F72" stroke-width="3" stroke-miterlimit="10" d="M572.179-435h124.936l-11.25,35.158h-70.717v43.314h57.161
		l-11.25,34.876h-45.911v76.221h-42.969V-401.08V-435z"/>
	<path stroke="#003F72" stroke-width="3" stroke-miterlimit="10" d="M709.453-289.308c11.307,5.906,29.399,11.813,47.773,11.813
		c19.787,0,30.248-8.156,30.248-20.813c0-11.532-9.047-18.563-31.943-26.439c-31.662-11.25-52.58-28.688-52.58-56.532
		c0-32.345,27.42-56.813,72.086-56.813c21.766,0,38.564,4.219,49.871,9.563l-10.86,34.313c-7.351-3.656-21.202-9-39.577-9
		c-18.658,0-27.703,8.72-27.703,18.283c0,12.093,10.459,17.438,35.336,27c33.64,12.375,49.188,29.814,49.188,56.815
		c0,31.781-24.311,58.781-76.608,58.781c-21.768,0-45.752-7.155-56.494-13.063L709.453-289.308z"/>
	<path stroke="#003F72" stroke-width="3" stroke-miterlimit="10" d="M1001.255-252.994c-7.632,3.656-29.476,10.655-52.372,10.655
		c-65.866,0-99.789-41.063-99.789-95.345c0-64.69,46.36-100.409,104.029-100.409c22.332,0,40.544,5.749,48.176,9.688l-10.295,32.501
		c-8.482-3.657-20.638-7.031-36.185-7.031c-33.923,0-60.495,20.531-60.495,63c0,37.97,22.614,61.877,60.778,61.877
		c13.286,0,27.419-2.532,36.185-6.188L1001.255-252.994z"/>
</g>
<polyline points="606.94,-351.588 549.576,-309.932 549.18,-244.196 513.626,-285.528 444.676,-244.772 482.056,-311.318 
	425.905,-351.768 501.975,-351.993 544.836,-417.416 544.631,-351.665 606.94,-351.588 "/>
<text transform="matrix(1.0051 0 0 1 1117.7803 -307.9766)"><tspan x="0" y="0" font-family="'Myriad-Bold'" font-size="80">S</tspan><tspan x="43.199" y="0" font-family="'Myriad-Bold'" font-size="67.5">E</tspan><tspan x="79.244" y="0" font-family="'Myriad-Bold'" font-size="67.5" letter-spacing="0.995">RVICES</tspan></text>
<text transform="matrix(1.0051 0 0 1 1120.9404 -384.7773)"><tspan x="0" y="0" font-family="'Myriad-Bold'" font-size="80">F</tspan><tspan x="42.16" y="0" font-family="'Myriad-Bold'" font-size="67.5">I</tspan><tspan x="61.396" y="0" font-family="'Myriad-Bold'" font-size="67.5" letter-spacing="0.995">NANCIAL</tspan></text>
<text transform="matrix(1.0051 0 0 1 1117.7803 -231.7051)"><tspan x="0" y="0" font-family="'Myriad-Bold'" font-size="80">C</tspan><tspan x="47.599" y="0" font-family="'Myriad-Bold'" font-size="67.5">E</tspan><tspan x="83.643" y="0" font-family="'Myriad-Bold'" font-size="67.5" letter-spacing="0.995">NTER</tspan></text>
<line stroke="#000000" stroke-width="3" stroke-miterlimit="10" x1="1070.5" y1="-476.152" x2="1070.5" y2="-177.152"/>
<polygon fill="#C4262E" points="471.056,-681.318 448.346,-640.89 433.676,-615.336 434.179,-615.667 433.676,-614.772 
	500.626,-658.528 537,-683.353 595.94,-722.152 "/>
<polyline fill="#FFFFFF" points="569.811,-709.977 453.039,-635.952 476.959,-677.152 570,-710.152 "/>
<polyline fill="#FFFFFF" points="1766.811,-329.977 1645.039,-249.952 1668.959,-292.152 1767,-330.152 "/>
<polyline fill="#FFFFFF" points="582.811,-340.977 466.039,-266.952 489.959,-308.152 583,-341.152 "/>
<polygon fill="#C4262E" points="2909,15.601 2867.232,84.057 2784.905,84.232 2841.056,124.682 2872.788,146.472 2909,189.411 
	2909,119.348 2965,83.848 2909,83.598 "/>
<polygon fill="#C4262E" points="2841.056,124.682 2818.346,165.11 2803.676,190.664 2804.179,190.333 2803.676,191.229 
	2870.626,147.472 2907,122.647 2965.94,83.848 "/>
<polyline fill="#FFFFFF" points="2939.811,96.023 2823.039,170.048 2846.959,128.848 2940,95.848 "/>
<text transform="matrix(1.0051 0 0 1 3488.7803 115.0234)"><tspan x="0" y="0" fill="#003F72" font-family="'Myriad-Bold'" font-size="80">S</tspan><tspan x="43.199" y="0" fill="#003F72" font-family="'Myriad-Bold'" font-size="67.5">E</tspan><tspan x="79.244" y="0" fill="#003F72" font-family="'Myriad-Bold'" font-size="67.5" letter-spacing="0.995">RVICES</tspan></text>
<text transform="matrix(1.0051 0 0 1 3491.9404 38.2227)"><tspan x="0" y="0" fill="#003F72" font-family="'Myriad-Bold'" font-size="80">F</tspan><tspan x="42.16" y="0" fill="#003F72" font-family="'Myriad-Bold'" font-size="67.5">I</tspan><tspan x="61.396" y="0" fill="#003F72" font-family="'Myriad-Bold'" font-size="67.5" letter-spacing="0.995">NANCIAL</tspan></text>
<text transform="matrix(1.0051 0 0 1 3488.7803 191.2949)"><tspan x="0" y="0" fill="#003F72" font-family="'Myriad-Bold'" font-size="80">C</tspan><tspan x="47.599" y="0" fill="#003F72" font-family="'Myriad-Bold'" font-size="67.5">E</tspan><tspan x="83.643" y="0" fill="#003F72" font-family="'Myriad-Bold'" font-size="67.5" letter-spacing="0.995">NTER</tspan></text>
<line fill="none" stroke="#003F72" stroke-width="3" stroke-miterlimit="10" x1="3441.5" y1="-53.152" x2="3441.5" y2="245.848"/>
<g>
	<path fill="#003F72" stroke="#003F72" stroke-width="3" stroke-miterlimit="10" d="M2044.179,628h124.936l-11.25,35.158h-70.717
		v43.314h57.161l-11.25,34.876h-45.911v76.221h-42.969V661.92V628z"/>
	<path fill="#003F72" stroke="#003F72" stroke-width="3" stroke-miterlimit="10" d="M2181.453,773.692
		c11.307,5.906,29.399,11.813,47.773,11.813c19.787,0,30.248-8.156,30.248-20.813c0-11.532-9.047-18.563-31.943-26.439
		c-31.662-11.25-52.58-28.688-52.58-56.532c0-32.345,27.42-56.813,72.086-56.813c21.766,0,38.564,4.219,49.871,9.563l-10.86,34.313
		c-7.351-3.656-21.202-9-39.577-9c-18.658,0-27.703,8.72-27.703,18.283c0,12.093,10.459,17.438,35.336,27
		c33.64,12.375,49.188,29.814,49.188,56.815c0,31.781-24.311,58.781-76.608,58.781c-21.768,0-45.752-7.155-56.494-13.063
		L2181.453,773.692z"/>
	<path fill="#003F72" stroke="#003F72" stroke-width="3" stroke-miterlimit="10" d="M2473.255,810.006
		c-7.632,3.656-29.476,10.655-52.372,10.655c-65.866,0-99.789-41.063-99.789-95.345c0-64.69,46.36-100.409,104.029-100.409
		c22.332,0,40.544,5.749,48.176,9.688l-10.295,32.501c-8.482-3.657-20.638-7.031-36.185-7.031c-33.923,0-60.495,20.531-60.495,63
		c0,37.97,22.614,61.877,60.778,61.877c13.286,0,27.419-2.532,36.185-6.188L2473.255,810.006z"/>
</g>
<polygon fill="#C4262E" points="2018,635.21 1973.984,707.089 1887.46,707.273 1946.377,749.745 1979.837,772.625 2018,817.711 
	2018,744.145 2076.8,706.87 2018,706.607 "/>
<polygon fill="#C4262E" points="1946.337,749.745 1922.492,792.195 1907.089,819.026 1907.616,818.679 1907.089,819.619 
	1977.386,773.675 2015.579,747.609 2077.467,706.869 "/>
<polyline fill="#FFFFFF" points="2048.03,718.654 1927.42,797.379 1952.536,754.119 2048.229,718.469 "/>
<g>
	<path fill="#003F72" d="M-955.821,103.378h124.936l-11.25,35.158h-70.717v43.313h57.161l-11.25,34.876h-45.911v76.221h-42.969
		V137.298V103.378z"/>
	<path fill="#003F72" d="M-817.441,247.052c11.08,5.787,28.811,11.576,46.818,11.576c19.391,0,29.643-7.993,29.643-20.396
		c0-11.301-8.866-18.192-31.305-25.911c-31.029-11.025-51.528-28.114-51.528-55.401c0-31.698,26.872-55.677,70.644-55.677
		c21.331,0,37.793,4.134,48.874,9.371l-10.644,33.627c-7.204-3.583-20.778-8.821-38.786-8.821c-18.285,0-27.149,8.545-27.149,17.917
		c0,11.852,10.25,17.089,34.629,26.46c32.967,12.127,48.204,29.218,48.204,55.679c0,31.145-23.824,57.605-75.076,57.605
		c-21.332,0-44.837-7.012-55.364-12.801L-817.441,247.052z"/>
	<path fill="#003F72" d="M-528.266,282.639c-7.479,3.583-28.886,10.442-51.325,10.442c-64.549,0-97.793-40.242-97.793-93.438
		c0-63.396,45.433-98.401,101.949-98.401c21.885,0,39.733,5.634,47.212,9.494l-10.089,31.851
		c-8.313-3.584-20.225-6.891-35.461-6.891c-33.245,0-59.285,20.121-59.285,61.74c0,37.211,22.162,60.64,59.563,60.64
		c13.021,0,26.871-2.481,35.461-6.064L-528.266,282.639z"/>
</g>
<polyline fill="#C4262E" points="-923.742,182.005 -983.733,221.496 -983.629,293.349 -1023.03,247.364 -1091.979,292.752 
	-1053.222,223.757 -1112.076,181.62 -1032.57,181.585 -984.49,107.378 -984.344,181.926 -923.742,182.005 "/>
<polyline fill="#772432" points="-923.742,182.005 -1091.979,292.752 -1053.222,223.757 -923.742,182.005 "/>
<g>
	<path fill="#003F72" d="M-425.868,209.324c3.016,1.574,7.84,3.149,12.739,3.149c5.276,0,8.065-2.175,8.065-5.55
		c0-3.074-2.412-4.949-8.518-7.05c-8.442-3-14.021-7.649-14.021-15.074c0-8.625,7.312-15.149,19.222-15.149
		c5.804,0,9.95,1.125,12.965,2.55l-2.563,9.149c-1.96-0.975-5.653-2.399-10.554-2.399c-4.975,0-7.387,2.325-7.387,4.875
		c0,3.225,2.789,4.649,9.423,7.199c8.97,3.3,13.115,7.95,13.115,15.149c0,8.475-6.482,15.675-20.428,15.675
		c-5.804,0-11.532-1.575-14.396-3.15L-425.868,209.324z"/>
	<path fill="#003F72" d="M-360.009,202.498h-16.2v10.4h18.095v8.125h-28.023v-43.812h27.108v8.125h-17.18v9.101h16.2V202.498z"/>
	<path fill="#003F72" d="M-351.316,177.861c3.2-0.585,7.904-0.975,13.261-0.975c6.532,0,11.104,0.975,14.24,3.51
		c2.678,2.08,4.115,5.136,4.115,9.166c0,5.525-3.984,9.36-7.773,10.726v0.194c3.07,1.235,4.769,4.096,5.879,8.126
		c1.372,5.005,2.679,10.725,3.527,12.415h-10.19c-0.653-1.235-1.764-4.811-3.005-10.205c-1.241-5.525-3.136-6.955-7.251-7.021
		h-2.939v17.226h-9.863V177.861z M-341.453,196.647h3.92c4.964,0,7.903-2.47,7.903-6.306c0-3.965-2.743-6.045-7.315-6.045
		c-2.417,0-3.789,0.13-4.508,0.325V196.647z"/>
	<path fill="#003F72" d="M-300.949,221.023l-14.109-43.812h10.909l5.356,18.525c1.502,5.266,2.874,10.206,3.919,15.666h0.196
		c1.11-5.266,2.482-10.466,3.984-15.471l5.618-18.721h10.582l-14.828,43.812H-300.949z"/>
	<path fill="#003F72" d="M-258.159,177.212v43.812h-9.929v-43.812H-258.159z"/>
	<path fill="#003F72" d="M-215.632,219.854c-1.764,0.845-5.944,1.885-11.235,1.885c-15.221,0-23.06-9.49-23.06-22.035
		c0-14.951,10.713-23.206,24.039-23.206c5.16,0,9.08,1.04,10.844,1.95l-2.091,7.8c-1.959-0.845-4.769-1.625-8.361-1.625
		c-7.839,0-13.979,4.745-13.979,14.561c0,8.775,5.226,14.301,14.044,14.301c3.07,0,6.337-0.585,8.361-1.431L-215.632,219.854z"/>
	<path fill="#003F72" d="M-181.203,202.498h-16.2v10.4h18.095v8.125h-28.023v-43.812h27.108v8.125h-17.18v9.101h16.2V202.498z"/>
	<path fill="#003F72" d="M-170.552,210.883c2.613,1.365,6.794,2.73,11.04,2.73c4.572,0,6.989-1.885,6.989-4.811
		c0-2.665-2.09-4.29-7.382-6.11c-7.315-2.6-12.149-6.63-12.149-13.065c0-7.475,6.336-13.13,16.657-13.13
		c5.029,0,8.622,0.975,11.235,2.21l-2.221,7.93c-1.698-0.845-4.899-2.08-9.146-2.08c-4.312,0-6.401,2.016-6.401,4.226
		c0,2.795,2.417,4.03,8.165,6.24c7.773,2.86,11.366,6.891,11.366,13.131c0,7.345-5.617,13.585-17.702,13.585
		c-5.03,0-9.995-1.365-12.477-2.729L-170.552,210.883z"/>
</g>
<g>
	<path fill="#003F72" d="M-423.009,97.675h30.98v9.375h-19.523v11.549h18.241v9.3h-18.241v20.324h-11.457V97.675z"/>
	<path fill="#003F72" d="M-374.028,104.411v43.812h-9.929v-43.812H-374.028z"/>
	<path fill="#003F72" d="M-365.404,148.223v-43.812h11.627l9.146,16.056c2.613,4.615,5.16,10.075,7.186,15.016h0.131
		c-0.588-5.785-0.784-11.701-0.784-18.331v-12.74h9.146v43.812h-10.452l-9.406-16.9c-2.613-4.745-5.553-10.336-7.643-15.471h-0.262
		c0.327,5.85,0.457,12.025,0.457,19.176v13.195H-365.404z"/>
	<path fill="#003F72" d="M-308.504,136.978l-3.07,11.245h-10.321l13.457-43.812h12.999l13.718,43.812h-10.713l-3.396-11.245
		H-308.504z M-297.334,129.567l-2.743-9.296c-0.719-2.6-1.503-5.915-2.156-8.45h-0.195c-0.588,2.601-1.307,5.915-1.96,8.45
		l-2.679,9.296H-297.334z"/>
	<path fill="#003F72" d="M-274.205,148.223v-43.812h11.627l9.146,16.056c2.613,4.615,5.16,10.075,7.186,15.016h0.131
		c-0.588-5.785-0.784-11.701-0.784-18.331v-12.74h9.146v43.812h-10.452l-9.406-16.9c-2.613-4.745-5.553-10.336-7.643-15.471h-0.262
		c0.327,5.85,0.457,12.025,0.457,19.176v13.195H-274.205z"/>
	<path fill="#003F72" d="M-195.226,147.053c-1.764,0.845-5.944,1.885-11.235,1.885c-15.221,0-23.06-9.49-23.06-22.035
		c0-14.951,10.713-23.206,24.039-23.206c5.16,0,9.08,1.04,10.844,1.95l-2.091,7.8c-1.959-0.845-4.769-1.625-8.361-1.625
		c-7.839,0-13.979,4.745-13.979,14.561c0,8.775,5.226,14.301,14.044,14.301c3.07,0,6.337-0.585,8.361-1.431L-195.226,147.053z"/>
	<path fill="#003F72" d="M-176.997,104.411v43.812h-9.929v-43.812H-176.997z"/>
	<path fill="#003F72" d="M-156.549,136.978l-3.07,11.245h-10.321l13.457-43.812h12.999l13.718,43.812h-10.713l-3.396-11.245
		H-156.549z M-145.379,129.567l-2.743-9.296c-0.719-2.6-1.503-5.915-2.156-8.45h-0.195c-0.588,2.601-1.307,5.915-1.96,8.45
		l-2.679,9.296H-145.379z"/>
	<path fill="#003F72" d="M-122.185,104.411h9.929v35.491h17.507v8.32h-27.436V104.411z"/>
</g>
<g>
	<path fill="#003F72" d="M-389.008,293.945c-2.035,0.975-6.859,2.175-12.965,2.175c-17.563,0-26.608-10.95-26.608-25.424
		c0-17.25,12.361-26.774,27.739-26.774c5.954,0,10.478,1.2,12.513,2.25l-2.412,9c-2.262-0.976-5.503-1.875-9.648-1.875
		c-9.046,0-16.131,5.475-16.131,16.799c0,10.125,6.03,16.5,16.206,16.5c3.543,0,7.312-0.676,9.648-1.65L-389.008,293.945z"/>
	<path fill="#003F72" d="M-355.863,276.77h-16.2v10.4h18.095v8.125h-28.023v-43.812h27.108v8.125h-17.18v9.101h16.2V276.77z"/>
	<path fill="#003F72" d="M-347.172,295.295v-43.812h11.627l9.146,16.056c2.613,4.615,5.16,10.075,7.186,15.016h0.131
		c-0.588-5.785-0.784-11.701-0.784-18.331v-12.74h9.146v43.812h-10.452l-9.406-16.9c-2.613-4.745-5.553-10.336-7.643-15.471h-0.262
		c0.327,5.85,0.457,12.025,0.457,19.176v13.195H-347.172z"/>
	<path fill="#003F72" d="M-291.904,259.804h-11.889v-8.32h33.838v8.32h-12.02v35.491h-9.93V259.804z"/>
	<path fill="#003F72" d="M-236.833,276.77h-16.2v10.4h18.095v8.125h-28.023v-43.812h27.108v8.125h-17.18v9.101h16.2V276.77z"/>
	<path fill="#003F72" d="M-226.509,252.133c3.2-0.585,7.904-0.975,13.261-0.975c6.532,0,11.104,0.975,14.24,3.51
		c2.678,2.08,4.115,5.136,4.115,9.166c0,5.525-3.984,9.36-7.773,10.726v0.194c3.07,1.235,4.769,4.096,5.879,8.126
		c1.372,5.005,2.679,10.725,3.527,12.415h-10.19c-0.653-1.235-1.764-4.811-3.005-10.205c-1.241-5.525-3.136-6.955-7.251-7.021
		h-2.939v17.226h-9.863V252.133z M-216.646,270.919h3.92c4.964,0,7.903-2.47,7.903-6.306c0-3.965-2.743-6.045-7.315-6.045
		c-2.417,0-3.789,0.13-4.508,0.325V270.919z"/>
</g>
<g>
	<path stroke="#000000" stroke-width="3" stroke-miterlimit="10" d="M-1013.821,893.378h124.936l-11.25,35.158h-70.717v43.313
		h57.161l-11.25,34.876h-45.911v76.221h-42.969V927.298V893.378z"/>
	<path stroke="#000000" stroke-width="3" stroke-miterlimit="10" d="M-876.547,1039.07c11.307,5.905,29.399,11.813,47.773,11.813
		c19.787,0,30.248-8.156,30.248-20.813c0-11.532-9.047-18.563-31.943-26.439c-31.662-11.25-52.58-28.688-52.58-56.532
		c0-32.345,27.42-56.813,72.086-56.813c21.766,0,38.564,4.219,49.871,9.563l-10.86,34.313c-7.351-3.656-21.202-9.001-39.577-9.001
		c-18.658,0-27.703,8.72-27.703,18.282c0,12.094,10.459,17.438,35.336,27c33.64,12.375,49.188,29.814,49.188,56.815
		c0,31.78-24.311,58.781-76.608,58.781c-21.768,0-45.752-7.155-56.494-13.063L-876.547,1039.07z"/>
	<path stroke="#000000" stroke-width="3" stroke-miterlimit="10" d="M-584.745,1075.384c-7.632,3.656-29.476,10.655-52.372,10.655
		c-65.866,0-99.789-41.063-99.789-95.345c0-64.69,46.36-100.409,104.029-100.409c22.332,0,40.544,5.749,48.176,9.688l-10.295,32.501
		c-8.482-3.657-20.638-7.031-36.185-7.031c-33.923,0-60.495,20.531-60.495,63c0,37.971,22.614,61.878,60.778,61.878
		c13.286,0,27.419-2.532,36.185-6.188L-584.745,1075.384z"/>
</g>
<polyline fill="#FFFFFF" stroke="#000000" stroke-width="3" stroke-miterlimit="10" points="-981.742,972.005 -1041.733,1011.496 
	-1041.629,1083.349 -1081.03,1037.364 -1149.979,1082.752 -1111.222,1013.757 -1170.076,971.62 -1090.57,971.585 -1042.49,897.378 
	-1042.344,971.926 -981.742,972.005 "/>
<polyline points="-981.742,972.005 -1149.979,1082.752 -1111.222,1013.757 -981.742,972.005 "/>
<text transform="matrix(1.0051 0 0 1 -489.2197 1009.0234)"><tspan x="0" y="0" font-family="'Myriad-Bold'" font-size="80">S</tspan><tspan x="43.199" y="0" font-family="'Myriad-Bold'" font-size="67.5">E</tspan><tspan x="79.244" y="0" font-family="'Myriad-Bold'" font-size="67.5" letter-spacing="0.995">RVICES</tspan></text>
<text transform="matrix(1.0051 0 0 1 -486.0596 932.2227)"><tspan x="0" y="0" font-family="'Myriad-Bold'" font-size="80">F</tspan><tspan x="42.16" y="0" font-family="'Myriad-Bold'" font-size="67.5">I</tspan><tspan x="61.396" y="0" font-family="'Myriad-Bold'" font-size="67.5" letter-spacing="0.995">NANCIAL</tspan></text>
<text transform="matrix(1.0051 0 0 1 -489.2197 1085.2949)"><tspan x="0" y="0" font-family="'Myriad-Bold'" font-size="80">C</tspan><tspan x="47.599" y="0" font-family="'Myriad-Bold'" font-size="67.5">E</tspan><tspan x="83.643" y="0" font-family="'Myriad-Bold'" font-size="67.5" letter-spacing="0.995">NTER</tspan></text>
<line fill="none" stroke="#000000" stroke-width="3" stroke-miterlimit="10" x1="-541.5" y1="840.848" x2="-541.5" y2="1139.848"/>
<rect x="-1713" y="-472.152" opacity="0.1" fill="#003F72" width="1141" height="98"/>
<rect x="-999" y="-316.152" opacity="0.1" fill="#003F72" width="1210" height="98"/>
<rect x="-1566" y="-1026.152" opacity="0.1" fill="#003F72" width="98" height="1141"/>
<rect x="-1427" y="-1043.152" opacity="0.1" fill="#003F72" width="98" height="1141"/>
<path fill="#FFFFFF" stroke="#FFFFFF" stroke-width="2" stroke-miterlimit="10" d="M250.179,104.378h124.936l-11.25,35.158h-70.717
	v43.313h57.161l-11.25,34.876h-45.911v76.221h-42.969V138.298V104.378z"/>
<path fill="#FFFFFF" stroke="#FFFFFF" stroke-width="2" stroke-miterlimit="10" d="M388.559,248.052
	c11.08,5.787,28.811,11.576,46.818,11.576c19.391,0,29.643-7.993,29.643-20.396c0-11.301-8.866-18.192-31.305-25.911
	c-31.029-11.025-51.528-28.114-51.528-55.401c0-31.698,26.872-55.677,70.644-55.677c21.331,0,37.793,4.134,48.874,9.371
	l-10.644,33.627c-7.204-3.583-20.778-8.821-38.786-8.821c-18.285,0-27.149,8.545-27.149,17.917c0,11.852,10.25,17.089,34.629,26.46
	c32.967,12.127,48.204,29.218,48.204,55.679c0,31.145-23.824,57.605-75.076,57.605c-21.332,0-44.837-7.012-55.364-12.801
	L388.559,248.052z"/>
<path fill="#FFFFFF" stroke="#FFFFFF" stroke-width="2" stroke-miterlimit="10" d="M677.734,283.639
	c-7.479,3.583-28.886,10.442-51.325,10.442c-64.549,0-97.793-40.242-97.793-93.438c0-63.396,45.433-98.401,101.949-98.401
	c21.885,0,39.733,5.634,47.212,9.494l-10.089,31.851c-8.313-3.584-20.225-6.891-35.461-6.891c-33.245,0-59.285,20.121-59.285,61.74
	c0,37.211,22.162,60.64,59.563,60.64c13.021,0,26.871-2.481,35.461-6.064L677.734,283.639z"/>
<polyline fill="#C4262E" points="282.258,183.005 222.267,222.496 222.371,294.349 182.97,248.364 114.021,293.752 152.778,224.757 
	93.924,182.62 173.43,182.585 221.51,108.378 221.656,182.926 282.258,183.005 "/>
<polyline fill="#772432" points="282.258,183.005 114.021,293.752 152.778,224.757 282.258,183.005 "/>
<g>
	<path fill="#FFFFFF" d="M780.132,211.324c3.016,1.574,7.84,3.149,12.739,3.149c5.276,0,8.065-2.175,8.065-5.55
		c0-3.074-2.412-4.949-8.518-7.05c-8.442-3-14.021-7.649-14.021-15.074c0-8.625,7.312-15.149,19.222-15.149
		c5.804,0,9.95,1.125,12.965,2.55l-2.563,9.149c-1.96-0.975-5.653-2.399-10.554-2.399c-4.975,0-7.387,2.325-7.387,4.875
		c0,3.225,2.789,4.649,9.423,7.199c8.97,3.3,13.115,7.95,13.115,15.149c0,8.475-6.482,15.675-20.428,15.675
		c-5.804,0-11.532-1.575-14.396-3.15L780.132,211.324z"/>
	<path fill="#FFFFFF" d="M845.991,204.498h-16.2v10.4h18.095v8.125h-28.023v-43.812h27.108v8.125h-17.18v9.101h16.2V204.498z"/>
	<path fill="#FFFFFF" d="M854.684,179.861c3.2-0.585,7.904-0.975,13.261-0.975c6.532,0,11.104,0.975,14.24,3.51
		c2.678,2.08,4.115,5.136,4.115,9.166c0,5.525-3.984,9.36-7.773,10.726v0.194c3.07,1.235,4.769,4.096,5.879,8.126
		c1.372,5.005,2.679,10.725,3.527,12.415h-10.19c-0.653-1.235-1.764-4.811-3.005-10.205c-1.241-5.525-3.136-6.955-7.251-7.021
		h-2.939v17.226h-9.863V179.861z M864.547,198.647h3.92c4.964,0,7.903-2.47,7.903-6.306c0-3.965-2.743-6.045-7.315-6.045
		c-2.417,0-3.789,0.13-4.508,0.325V198.647z"/>
	<path fill="#FFFFFF" d="M905.051,223.023l-14.109-43.812h10.909l5.356,18.525c1.502,5.266,2.874,10.206,3.919,15.666h0.196
		c1.11-5.266,2.482-10.466,3.984-15.471l5.618-18.721h10.582l-14.828,43.812H905.051z"/>
	<path fill="#FFFFFF" d="M947.841,179.212v43.812h-9.929v-43.812H947.841z"/>
	<path fill="#FFFFFF" d="M990.368,221.854c-1.764,0.845-5.944,1.885-11.235,1.885c-15.221,0-23.06-9.49-23.06-22.035
		c0-14.951,10.713-23.206,24.039-23.206c5.16,0,9.08,1.04,10.844,1.95l-2.091,7.8c-1.959-0.845-4.769-1.625-8.361-1.625
		c-7.839,0-13.979,4.745-13.979,14.561c0,8.775,5.226,14.301,14.044,14.301c3.07,0,6.337-0.585,8.361-1.431L990.368,221.854z"/>
	<path fill="#FFFFFF" d="M1024.797,204.498h-16.2v10.4h18.095v8.125h-28.023v-43.812h27.108v8.125h-17.18v9.101h16.2V204.498z"/>
	<path fill="#FFFFFF" d="M1035.448,212.883c2.613,1.365,6.794,2.73,11.04,2.73c4.572,0,6.989-1.885,6.989-4.811
		c0-2.665-2.09-4.29-7.382-6.11c-7.315-2.6-12.149-6.63-12.149-13.065c0-7.475,6.336-13.13,16.657-13.13
		c5.029,0,8.622,0.975,11.235,2.21l-2.221,7.93c-1.698-0.845-4.899-2.08-9.146-2.08c-4.312,0-6.401,2.016-6.401,4.226
		c0,2.795,2.417,4.03,8.165,6.24c7.773,2.86,11.366,6.891,11.366,13.131c0,7.345-5.617,13.585-17.702,13.585
		c-5.03,0-9.995-1.365-12.477-2.729L1035.448,212.883z"/>
</g>
<g>
	<path fill="#FFFFFF" d="M782.991,98.675h30.98v9.375h-19.523v11.549h18.241v9.3h-18.241v20.324h-11.457V98.675z"/>
	<path fill="#FFFFFF" d="M831.972,105.411v43.812h-9.929v-43.812H831.972z"/>
	<path fill="#FFFFFF" d="M840.596,149.223v-43.812h11.627l9.146,16.056c2.613,4.615,5.16,10.075,7.186,15.016h0.131
		c-0.588-5.785-0.784-11.701-0.784-18.331v-12.74h9.146v43.812h-10.452l-9.406-16.9c-2.613-4.745-5.553-10.336-7.643-15.471h-0.262
		c0.327,5.85,0.457,12.025,0.457,19.176v13.195H840.596z"/>
	<path fill="#FFFFFF" d="M897.496,137.978l-3.07,11.245h-10.321l13.457-43.812h12.999l13.718,43.812h-10.713l-3.396-11.245H897.496z
		 M908.666,130.567l-2.743-9.296c-0.719-2.6-1.503-5.915-2.156-8.45h-0.195c-0.588,2.601-1.307,5.915-1.96,8.45l-2.679,9.296
		H908.666z"/>
	<path fill="#FFFFFF" d="M931.795,149.223v-43.812h11.627l9.146,16.056c2.613,4.615,5.16,10.075,7.186,15.016h0.131
		c-0.588-5.785-0.784-11.701-0.784-18.331v-12.74h9.146v43.812h-10.452l-9.406-16.9c-2.613-4.745-5.553-10.336-7.643-15.471h-0.262
		c0.327,5.85,0.457,12.025,0.457,19.176v13.195H931.795z"/>
	<path fill="#FFFFFF" d="M1010.774,148.053c-1.764,0.845-5.944,1.885-11.235,1.885c-15.221,0-23.06-9.49-23.06-22.035
		c0-14.951,10.713-23.206,24.039-23.206c5.16,0,9.08,1.04,10.844,1.95l-2.091,7.8c-1.959-0.845-4.769-1.625-8.361-1.625
		c-7.839,0-13.979,4.745-13.979,14.561c0,8.775,5.226,14.301,14.044,14.301c3.07,0,6.337-0.585,8.361-1.431L1010.774,148.053z"/>
	<path fill="#FFFFFF" d="M1029.003,105.411v43.812h-9.929v-43.812H1029.003z"/>
	<path fill="#FFFFFF" d="M1049.451,137.978l-3.07,11.245h-10.321l13.457-43.812h12.999l13.718,43.812h-10.713l-3.396-11.245
		H1049.451z M1060.621,130.567l-2.743-9.296c-0.719-2.6-1.503-5.915-2.156-8.45h-0.195c-0.588,2.601-1.307,5.915-1.96,8.45
		l-2.679,9.296H1060.621z"/>
	<path fill="#FFFFFF" d="M1083.815,105.411h9.929v35.491h17.507v8.32h-27.436V105.411z"/>
</g>
<g>
	<path fill="#FFFFFF" d="M816.992,294.945c-2.035,0.975-6.859,2.175-12.965,2.175c-17.563,0-26.608-10.95-26.608-25.424
		c0-17.25,12.361-26.774,27.739-26.774c5.954,0,10.478,1.2,12.513,2.25l-2.412,9c-2.262-0.976-5.503-1.875-9.648-1.875
		c-9.046,0-16.131,5.475-16.131,16.799c0,10.125,6.03,16.5,16.206,16.5c3.543,0,7.312-0.676,9.648-1.65L816.992,294.945z"/>
	<path fill="#FFFFFF" d="M850.137,277.77h-16.2v10.4h18.095v8.125h-28.023v-43.812h27.108v8.125h-17.18v9.101h16.2V277.77z"/>
	<path fill="#FFFFFF" d="M858.828,296.295v-43.812h11.627l9.146,16.056c2.613,4.615,5.16,10.075,7.186,15.016h0.131
		c-0.588-5.785-0.784-11.701-0.784-18.331v-12.74h9.146v43.812h-10.452l-9.406-16.9c-2.613-4.745-5.553-10.336-7.643-15.471h-0.262
		c0.327,5.85,0.457,12.025,0.457,19.176v13.195H858.828z"/>
	<path fill="#FFFFFF" d="M914.096,260.804h-11.889v-8.32h33.838v8.32h-12.02v35.491h-9.93V260.804z"/>
	<path fill="#FFFFFF" d="M969.167,277.77h-16.2v10.4h18.095v8.125h-28.023v-43.812h27.108v8.125h-17.18v9.101h16.2V277.77z"/>
	<path fill="#FFFFFF" d="M979.491,253.133c3.2-0.585,7.904-0.975,13.261-0.975c6.532,0,11.104,0.975,14.24,3.51
		c2.678,2.08,4.115,5.136,4.115,9.166c0,5.525-3.984,9.36-7.773,10.726v0.194c3.07,1.235,4.769,4.096,5.879,8.126
		c1.372,5.005,2.679,10.725,3.527,12.415h-10.19c-0.653-1.235-1.764-4.811-3.005-10.205c-1.241-5.525-3.136-6.955-7.251-7.021
		h-2.939v17.226h-9.863V253.133z M989.354,271.919h3.92c4.964,0,7.903-2.47,7.903-6.306c0-3.965-2.743-6.045-7.315-6.045
		c-2.417,0-3.789,0.13-4.508,0.325V271.919z"/>
</g>
<line fill="none" stroke="#FFFFFF" stroke-width="3" stroke-miterlimit="10" x1="727.5" y1="49.848" x2="727.5" y2="348.848"/>
<g>
	<path stroke="#000000" stroke-width="3" stroke-miterlimit="10" d="M257.179,1364.378h124.936l-11.25,35.158h-70.717v43.313h57.161
		l-11.25,34.876h-45.911v76.221h-42.969v-155.648V1364.378z"/>
	<path stroke="#000000" stroke-width="3" stroke-miterlimit="10" d="M394.453,1510.07c11.307,5.905,29.399,11.813,47.773,11.813
		c19.787,0,30.248-8.156,30.248-20.813c0-11.532-9.047-18.563-31.943-26.439c-31.662-11.25-52.58-28.688-52.58-56.532
		c0-32.345,27.42-56.813,72.086-56.813c21.766,0,38.564,4.219,49.871,9.563l-10.86,34.313c-7.351-3.656-21.202-9.001-39.577-9.001
		c-18.658,0-27.703,8.72-27.703,18.282c0,12.094,10.459,17.438,35.336,27c33.64,12.375,49.188,29.814,49.188,56.815
		c0,31.78-24.311,58.781-76.608,58.781c-21.768,0-45.752-7.155-56.494-13.063L394.453,1510.07z"/>
	<path stroke="#000000" stroke-width="3" stroke-miterlimit="10" d="M686.255,1546.384c-7.632,3.656-29.476,10.655-52.372,10.655
		c-65.866,0-99.789-41.063-99.789-95.345c0-64.69,46.36-100.409,104.029-100.409c22.332,0,40.544,5.749,48.176,9.688l-10.295,32.501
		c-8.482-3.657-20.638-7.031-36.185-7.031c-33.923,0-60.495,20.531-60.495,63c0,37.971,22.614,61.878,60.778,61.878
		c13.286,0,27.419-2.532,36.185-6.188L686.255,1546.384z"/>
</g>
<polyline stroke="#FFFFFF" stroke-width="2" stroke-miterlimit="10" points="289.258,1443.005 229.267,1482.496 229.371,1554.349 
	189.97,1508.364 121.021,1553.752 159.778,1484.757 100.924,1442.62 180.43,1442.585 228.51,1368.378 228.656,1442.926 
	289.258,1443.005 "/>
<polyline stroke="#FFFFFF" stroke-width="2" stroke-miterlimit="10" points="289.258,1443.005 121.021,1553.752 159.778,1484.757 
	289.258,1443.005 "/>
<text transform="matrix(1.0051 0 0 1 781.7803 1480.0234)"><tspan x="0" y="0" font-family="'Myriad-Bold'" font-size="80">S</tspan><tspan x="43.2" y="0" font-family="'Myriad-Bold'" font-size="67.5">E</tspan><tspan x="79.244" y="0" font-family="'Myriad-Bold'" font-size="67.5" letter-spacing="0.995">RVICES</tspan></text>
<text transform="matrix(1.0051 0 0 1 784.9404 1403.2227)"><tspan x="0" y="0" font-family="'Myriad-Bold'" font-size="80">F</tspan><tspan x="42.16" y="0" font-family="'Myriad-Bold'" font-size="67.5">I</tspan><tspan x="61.396" y="0" font-family="'Myriad-Bold'" font-size="67.5" letter-spacing="0.995">NANCIAL</tspan></text>
<text transform="matrix(1.0051 0 0 1 781.7803 1556.2949)"><tspan x="0" y="0" font-family="'Myriad-Bold'" font-size="80">C</tspan><tspan x="47.599" y="0" font-family="'Myriad-Bold'" font-size="67.5">E</tspan><tspan x="83.643" y="0" font-family="'Myriad-Bold'" font-size="67.5" letter-spacing="0.995">NTER</tspan></text>
<line fill="none" stroke="#000000" stroke-width="3" stroke-miterlimit="10" x1="729.5" y1="1311.848" x2="729.5" y2="1610.848"/>
<path stroke="#000000" stroke-width="3" stroke-miterlimit="10" d="M394.453,674.07c11.307,5.905,29.399,11.813,47.773,11.813
	c19.787,0,30.248-8.156,30.248-20.813c0-11.532-9.047-18.563-31.943-26.439c-31.662-11.25-52.58-28.688-52.58-56.532
	c0-32.345,27.42-56.813,72.086-56.813c21.766,0,38.564,4.219,49.871,9.563l-10.86,34.313c-7.351-3.656-21.202-9.001-39.577-9.001
	c-18.658,0-27.703,8.72-27.703,18.282c0,12.094,10.459,17.438,35.336,27c33.64,12.375,49.188,29.814,49.188,56.815
	c0,31.78-24.311,58.781-76.608,58.781c-21.768,0-45.752-7.155-56.494-13.063L394.453,674.07z"/>
<path stroke="#000000" stroke-width="3" stroke-miterlimit="10" d="M686.255,710.384c-7.632,3.656-29.476,10.655-52.372,10.655
	c-65.866,0-99.789-41.063-99.789-95.345c0-64.69,46.36-100.409,104.029-100.409c22.332,0,40.544,5.749,48.176,9.688l-10.295,32.501
	c-8.482-3.657-20.638-7.031-36.185-7.031c-33.923,0-60.495,20.531-60.495,63c0,37.971,22.614,61.878,60.778,61.878
	c13.286,0,27.419-2.532,36.185-6.188L686.255,710.384z"/>
<g>
	<path d="M787.489,631.543c3.217,1.681,8.363,3.36,13.59,3.36c5.63,0,8.604-2.32,8.604-5.92c0-3.28-2.573-5.28-9.087-7.521
		c-9.006-3.2-14.957-8.16-14.957-16.08c0-9.2,7.801-16.16,20.506-16.16c6.192,0,10.615,1.199,13.831,2.72l-2.733,9.76
		c-2.091-1.04-6.031-2.56-11.259-2.56c-5.307,0-7.88,2.479-7.88,5.2c0,3.439,2.975,4.96,10.052,7.68
		c9.569,3.521,13.992,8.48,13.992,16.16c0,9.041-6.916,16.721-21.793,16.721c-6.191,0-12.303-1.68-15.358-3.36L787.489,631.543z"/>
	<path d="M856.881,624.784h-16.824v10.801h18.792v8.438h-29.104v-45.498h28.154v8.438h-17.842v9.451h16.824V624.784z"/>
	<path d="M865.904,599.2c3.324-0.607,8.209-1.013,13.771-1.013c6.784,0,11.533,1.013,14.789,3.646
		c2.782,2.16,4.274,5.333,4.274,9.519c0,5.737-4.139,9.721-8.073,11.138v0.202c3.188,1.283,4.952,4.253,6.105,8.438
		c1.425,5.198,2.781,11.139,3.664,12.894h-10.584c-0.678-1.282-1.831-4.995-3.12-10.599c-1.289-5.737-3.257-7.223-7.53-7.29h-3.053
		v17.889h-10.244V599.2z M876.148,618.709h4.07c5.155,0,8.209-2.565,8.209-6.548c0-4.118-2.85-6.278-7.599-6.278
		c-2.51,0-3.935,0.136-4.681,0.338V618.709z"/>
	<path d="M918.21,644.023l-14.653-45.498h11.329l5.563,19.238c1.561,5.469,2.985,10.599,4.07,16.27h0.203
		c1.153-5.469,2.578-10.869,4.139-16.066l5.834-19.441h10.99l-15.399,45.498H918.21z"/>
	<path d="M962.646,598.525v45.498h-10.313v-45.498H962.646z"/>
	<path d="M1006.812,642.809c-1.832,0.877-6.174,1.957-11.669,1.957c-15.807,0-23.948-9.855-23.948-22.884
		c0-15.526,11.126-24.1,24.966-24.1c5.359,0,9.43,1.08,11.262,2.025l-2.171,8.101c-2.035-0.877-4.953-1.688-8.684-1.688
		c-8.142,0-14.519,4.928-14.519,15.121c0,9.113,5.428,14.852,14.586,14.852c3.188,0,6.581-0.608,8.684-1.485L1006.812,642.809z"/>
	<path d="M1042.563,624.784h-16.824v10.801h18.791v8.438h-29.104v-45.498h28.154v8.438h-17.842v9.451h16.824V624.784z"/>
	<path d="M1053.622,633.492c2.714,1.418,7.056,2.836,11.465,2.836c4.749,0,7.26-1.958,7.26-4.996c0-2.768-2.171-4.455-7.666-6.345
		c-7.599-2.7-12.619-6.886-12.619-13.568c0-7.764,6.581-13.637,17.3-13.637c5.224,0,8.955,1.013,11.669,2.296l-2.307,8.235
		c-1.764-0.878-5.088-2.16-9.498-2.16c-4.478,0-6.648,2.093-6.648,4.388c0,2.902,2.51,4.186,8.48,6.48
		c8.073,2.971,11.804,7.155,11.804,13.636c0,7.628-5.834,14.108-18.385,14.108c-5.224,0-10.379-1.417-12.957-2.835L1053.622,633.492
		z"/>
</g>
<g>
	<path d="M790.328,513.302h33.05v10h-20.827v12.32h19.46v9.92h-19.46v21.681h-12.223V513.302z"/>
	<path d="M842.172,521.725v45.498h-10.313v-45.498H842.172z"/>
	<path d="M851.126,567.223v-45.498h12.075l9.498,16.674c2.714,4.793,5.359,10.463,7.463,15.594h0.136
		c-0.611-6.009-0.814-12.151-0.814-19.037v-13.23h9.498v45.498h-10.855l-9.769-17.551c-2.714-4.929-5.767-10.733-7.938-16.066
		h-0.271c0.34,6.075,0.476,12.488,0.476,19.914v13.703H851.126z"/>
	<path d="M910.216,555.544l-3.188,11.679h-10.719l13.976-45.498h13.5l14.246,45.498h-11.126l-3.527-11.679H910.216z
		 M921.816,547.849l-2.849-9.653c-0.747-2.7-1.561-6.143-2.239-8.775h-0.203c-0.611,2.7-1.357,6.143-2.035,8.775l-2.782,9.653
		H921.816z"/>
	<path d="M945.833,567.223v-45.498h12.075l9.498,16.674c2.714,4.793,5.359,10.463,7.463,15.594h0.136
		c-0.611-6.009-0.814-12.151-0.814-19.037v-13.23h9.498v45.498h-10.855l-9.769-17.551c-2.714-4.929-5.767-10.733-7.938-16.066
		h-0.271c0.34,6.075,0.476,12.488,0.476,19.914v13.703H945.833z"/>
	<path d="M1027.853,566.008c-1.831,0.877-6.173,1.957-11.668,1.957c-15.807,0-23.948-9.855-23.948-22.884
		c0-15.526,11.126-24.1,24.966-24.1c5.359,0,9.43,1.08,11.262,2.025l-2.171,8.101c-2.035-0.877-4.952-1.688-8.684-1.688
		c-8.142,0-14.519,4.928-14.519,15.121c0,9.113,5.428,14.852,14.586,14.852c3.188,0,6.581-0.608,8.684-1.485L1027.853,566.008z"/>
	<path d="M1046.781,521.725v45.498h-10.313v-45.498H1046.781z"/>
	<path d="M1068.015,555.544l-3.188,11.679h-10.719l13.976-45.498h13.5l14.246,45.498h-11.126l-3.527-11.679H1068.015z
		 M1079.615,547.849l-2.849-9.653c-0.747-2.7-1.561-6.143-2.239-8.775h-0.203c-0.611,2.7-1.357,6.143-2.035,8.775l-2.782,9.653
		H1079.615z"/>
	<path d="M1103.7,521.725h10.313v36.857h18.181v8.641H1103.7V521.725z"/>
</g>
<g>
	<path d="M826.812,718.854c-2.171,1.04-7.317,2.32-13.831,2.32c-18.736,0-28.386-11.68-28.386-27.12
		c0-18.4,13.188-28.561,29.593-28.561c6.353,0,11.177,1.279,13.349,2.399l-2.573,9.601c-2.413-1.04-5.87-2-10.293-2
		c-9.65,0-17.209,5.84-17.209,17.92c0,10.801,6.434,17.601,17.289,17.601c3.779,0,7.8-0.72,10.293-1.76L826.812,718.854z"/>
	<path d="M861.303,701.056h-16.824v10.801h18.792v8.438h-29.104v-45.498h28.154v8.438h-17.842v9.451h16.824V701.056z"/>
	<path d="M870.326,720.295v-45.498h12.075l9.498,16.674c2.714,4.793,5.359,10.463,7.463,15.594h0.135
		c-0.61-6.009-0.813-12.151-0.813-19.037v-13.23h9.497v45.498h-10.854l-9.77-17.551c-2.714-4.929-5.767-10.733-7.938-16.066h-0.271
		c0.34,6.075,0.476,12.488,0.476,19.914v13.703H870.326z"/>
	<path d="M927.72,683.438h-12.347v-8.641h35.142v8.641h-12.482v36.857H927.72V683.438z"/>
	<path d="M984.91,701.056h-16.824v10.801h18.792v8.438h-29.104v-45.498h28.154v8.438h-17.842v9.451h16.824V701.056z"/>
	<path d="M995.63,675.472c3.324-0.607,8.209-1.013,13.771-1.013c6.784,0,11.533,1.013,14.789,3.646
		c2.781,2.16,4.274,5.333,4.274,9.519c0,5.737-4.139,9.721-8.073,11.138v0.202c3.188,1.283,4.952,4.253,6.105,8.438
		c1.425,5.198,2.781,11.139,3.664,12.894h-10.584c-0.678-1.282-1.831-4.995-3.12-10.599c-1.289-5.737-3.257-7.223-7.53-7.29h-3.053
		v17.889H995.63V675.472z M1005.874,694.98h4.07c5.155,0,8.209-2.565,8.209-6.548c0-4.118-2.85-6.278-7.599-6.278
		c-2.51,0-3.935,0.136-4.681,0.338V694.98z"/>
</g>
<line fill="none" stroke="#000000" stroke-width="3" stroke-miterlimit="10" x1="729.5" y1="475.848" x2="729.5" y2="774.848"/>
<path d="M370.864,563.848l11.25-35H257v33.45v44.665l-28.433-0.037l-0.102-74.548l-48.058,74.207l-79.495,0.035l58.86,42.137
	l-38.754,68.995l68.95-45.388l39.402,45.984l-0.193-71.853L257,628.122v89.726h43v-76h46.059l11.25-35H300v-43H370.864z
	 M273.554,611.484l-134.287,85.129l27.508-47.381l106.997-37.95L273.554,611.484z"/>
<g>
	<path fill="#003F72" d="M-1013.821,892.378h124.936l-11.25,35.158h-70.717v43.313h57.161l-11.25,34.876h-45.911v76.221h-42.969
		V926.298V892.378z"/>
	<path fill="#003F72" d="M-875.441,1036.053c11.08,5.787,28.811,11.576,46.818,11.576c19.391,0,29.643-7.994,29.643-20.397
		c0-11.301-8.866-18.192-31.305-25.911c-31.029-11.025-51.528-28.114-51.528-55.401c0-31.698,26.872-55.677,70.644-55.677
		c21.331,0,37.793,4.134,48.874,9.371l-10.644,33.627c-7.204-3.583-20.778-8.821-38.786-8.821c-18.285,0-27.149,8.545-27.149,17.917
		c0,11.852,10.25,17.089,34.629,26.46c32.967,12.127,48.204,29.218,48.204,55.679c0,31.145-23.824,57.606-75.076,57.606
		c-21.332,0-44.837-7.013-55.364-12.802L-875.441,1036.053z"/>
	<path fill="#003F72" d="M-586.266,1071.639c-7.479,3.584-28.886,10.443-51.325,10.443c-64.549,0-97.793-40.242-97.793-93.438
		c0-63.396,45.433-98.401,101.949-98.401c21.885,0,39.733,5.634,47.212,9.494l-10.089,31.851
		c-8.313-3.584-20.225-6.891-35.461-6.891c-33.245,0-59.285,20.121-59.285,61.74c0,37.211,22.162,60.64,59.563,60.64
		c13.021,0,26.871-2.481,35.461-6.063L-586.266,1071.639z"/>
</g>
<rect x="-478" y="48.848" fill="#003F72" width="3" height="299"/>
<polygon fill="#C4262E" points="-334.594,-992.418 -346.589,-996.48 -442.023,-1027.487 -399.301,-969.541 -457.48,-915.898 
	-377.882,-937.76 -353.972,-948.146 -332.515,-950.219 -263.257,-969.241 -320.868,-988.042 "/>
<polyline fill="#772432" points="-263.257,-969.241 -457.48,-915.898 -399.301,-969.541 -263.257,-969.241 "/>
<g>
	<g>
		<path fill="#003F72" d="M-840.218,449.354h24.987l-2.25,7.032h-14.143v8.663h11.432l-2.25,6.975h-9.182v15.244h-8.594v-31.129
			V449.354z"/>
		<path fill="#003F72" d="M-812.542,478.088c2.216,1.158,5.762,2.315,9.364,2.315c3.878,0,5.929-1.599,5.929-4.08
			c0-2.26-1.773-3.638-6.261-5.182c-6.206-2.205-10.306-5.623-10.306-11.08c0-6.339,5.375-11.135,14.129-11.135
			c4.266,0,7.559,0.827,9.775,1.874l-2.129,6.726c-1.44-0.717-4.155-1.764-7.757-1.764c-3.657,0-5.43,1.709-5.43,3.583
			c0,2.371,2.05,3.418,6.926,5.292c6.593,2.426,9.641,5.844,9.641,11.136c0,6.229-4.765,11.521-15.015,11.521
			c-4.267,0-8.967-1.402-11.073-2.561L-812.542,478.088z"/>
		<path fill="#003F72" d="M-754.708,485.206c-1.496,0.716-5.777,2.088-10.265,2.088c-12.91,0-19.559-8.048-19.559-18.688
			c0-12.68,9.086-19.68,20.39-19.68c4.377,0,7.946,1.126,9.442,1.898l-2.018,6.37c-1.663-0.717-4.045-1.378-7.092-1.378
			c-6.649,0-11.857,4.024-11.857,12.348c0,7.442,4.432,12.128,11.912,12.128c2.604,0,5.375-0.496,7.092-1.213L-754.708,485.206z"/>
	</g>
	<polyline fill="#C4262E" points="-833.803,465.079 -845.801,472.977 -845.78,487.348 -853.66,478.151 -867.45,487.229 
		-859.698,473.429 -871.469,465.002 -855.568,464.995 -845.952,450.154 -845.923,465.063 -833.803,465.079 	"/>
	<polyline fill="#772432" points="-833.803,465.079 -867.45,487.229 -859.698,473.429 -833.803,465.079 	"/>
	<text transform="matrix(1.0051 0 0 1 -735.2979 472.8828)"><tspan x="0" y="0" fill="#003F72" font-family="'Myriad-Bold'" font-size="15">S</tspan><tspan x="8.1" y="0" fill="#003F72" font-family="'Myriad-Bold'" font-size="13">E</tspan><tspan x="15.042" y="0" fill="#003F72" font-family="'Myriad-Bold'" font-size="13">RVICES</tspan></text>
	<text transform="matrix(1.0051 0 0 1 -734.666 458.3228)"><tspan x="0" y="0" fill="#003F72" font-family="'Myriad-Bold'" font-size="15">F</tspan><tspan x="7.905" y="0" fill="#003F72" font-family="'Myriad-Bold'" font-size="13">I</tspan><tspan x="11.61" y="0" fill="#003F72" font-family="'Myriad-Bold'" font-size="13">NANCIAL</tspan></text>
	<text transform="matrix(1.0051 0 0 1 -735.2979 487.7368)"><tspan x="0" y="0" fill="#003F72" font-family="'Myriad-Bold'" font-size="15">C</tspan><tspan x="8.925" y="0" fill="#003F72" font-family="'Myriad-Bold'" font-size="13">E</tspan><tspan x="15.867" y="0" fill="#003F72" font-family="'Myriad-Bold'" font-size="13">NTER</tspan></text>
	<rect x="-745" y="438.848" fill="#003F72" width="1" height="59"/>
</g>
<g>
	<path fill="#003F72" d="M-1153.506,458.605h31.233l-2.813,8.789h-17.679v10.829h14.29l-2.813,8.719h-11.478v19.055h-10.742v-38.912
		V458.605z"/>
	<path fill="#003F72" d="M-1118.911,494.524c2.77,1.447,7.203,2.894,11.705,2.894c4.848,0,7.411-1.999,7.411-5.099
		c0-2.826-2.216-4.548-7.826-6.478c-7.757-2.756-12.882-7.028-12.882-13.85c0-7.924,6.718-13.919,17.661-13.919
		c5.333,0,9.448,1.034,12.218,2.343l-2.661,8.407c-1.801-0.896-5.195-2.206-9.697-2.206c-4.571,0-6.787,2.136-6.787,4.479
		c0,2.963,2.563,4.272,8.657,6.615c8.242,3.032,12.051,7.305,12.051,13.92c0,7.786-5.956,14.401-18.77,14.401
		c-5.333,0-11.209-1.753-13.841-3.2L-1118.911,494.524z"/>
	<path fill="#003F72" d="M-1046.617,503.42c-1.87,0.896-7.222,2.611-12.831,2.611c-16.138,0-24.449-10.061-24.449-23.359
		c0-15.85,11.358-24.601,25.487-24.601c5.471,0,9.933,1.409,11.803,2.374l-2.522,7.963c-2.078-0.896-5.056-1.723-8.865-1.723
		c-8.311,0-14.821,5.03-14.821,15.435c0,9.303,5.541,15.16,14.891,15.16c3.255,0,6.718-0.621,8.865-1.516L-1046.617,503.42z"/>
</g>
<polyline fill="#C4262E" points="-1145.486,478.262 -1160.484,488.135 -1160.458,506.098 -1170.309,494.602 -1187.545,505.949 
	-1177.856,488.7 -1192.57,478.166 -1172.693,478.157 -1160.673,459.605 -1160.637,478.242 -1145.486,478.262 "/>
<polyline fill="#772432" points="-1145.486,478.262 -1187.545,505.949 -1177.856,488.7 -1145.486,478.262 "/>
<text transform="matrix(1.0051 0 0 1 -1022.3555 488.0166)"><tspan x="0" y="0" fill="#003F72" font-family="'Myriad-Bold'" font-size="18.75">S</tspan><tspan x="10.125" y="0" fill="#003F72" font-family="'Myriad-Bold'" font-size="16.25">E</tspan><tspan x="18.802" y="0" fill="#003F72" font-family="'Myriad-Bold'" font-size="16.25">RVICES</tspan></text>
<text transform="matrix(1.0051 0 0 1 -1021.5654 469.8164)"><tspan x="0" y="0" fill="#003F72" font-family="'Myriad-Bold'" font-size="18.75">F</tspan><tspan x="9.881" y="0" fill="#003F72" font-family="'Myriad-Bold'" font-size="16.25">I</tspan><tspan x="14.512" y="0" fill="#003F72" font-family="'Myriad-Bold'" font-size="16.25">NANCIAL</tspan></text>
<text transform="matrix(1.0051 0 0 1 -1022.3555 506.5845)"><tspan x="0" y="0" fill="#003F72" font-family="'Myriad-Bold'" font-size="18.75">C</tspan><tspan x="11.156" y="0" fill="#003F72" font-family="'Myriad-Bold'" font-size="16.25">E</tspan><tspan x="19.833" y="0" fill="#003F72" font-family="'Myriad-Bold'" font-size="16.25">NTER</tspan></text>
<rect x="-1034" y="444.848" fill="#003F72" width="1" height="75"/>
<g>
	<g>
		<path fill="#FFFFFF" d="M-576.218,449.354h24.987l-2.25,7.032h-14.143v8.663h11.432l-2.25,6.975h-9.182v15.244h-8.594v-31.129
			V449.354z"/>
		<path fill="#FFFFFF" d="M-548.542,478.088c2.216,1.158,5.762,2.315,9.364,2.315c3.878,0,5.929-1.599,5.929-4.08
			c0-2.26-1.773-3.638-6.261-5.182c-6.206-2.205-10.306-5.623-10.306-11.08c0-6.339,5.375-11.135,14.129-11.135
			c4.266,0,7.559,0.827,9.775,1.874l-2.129,6.726c-1.44-0.717-4.155-1.764-7.757-1.764c-3.657,0-5.43,1.709-5.43,3.583
			c0,2.371,2.05,3.418,6.926,5.292c6.593,2.426,9.641,5.844,9.641,11.136c0,6.229-4.765,11.521-15.015,11.521
			c-4.267,0-8.967-1.402-11.073-2.561L-548.542,478.088z"/>
		<path fill="#FFFFFF" d="M-490.708,485.206c-1.496,0.716-5.777,2.088-10.265,2.088c-12.91,0-19.559-8.048-19.559-18.688
			c0-12.68,9.086-19.68,20.39-19.68c4.377,0,7.946,1.126,9.442,1.898l-2.018,6.37c-1.663-0.717-4.045-1.378-7.092-1.378
			c-6.649,0-11.857,4.024-11.857,12.348c0,7.442,4.432,12.128,11.912,12.128c2.604,0,5.375-0.496,7.092-1.213L-490.708,485.206z"/>
	</g>
	<polyline fill="#C4262E" points="-569.803,465.079 -581.801,472.977 -581.78,487.348 -589.66,478.151 -603.45,487.229 
		-595.698,473.429 -607.469,465.002 -591.568,464.995 -581.952,450.154 -581.923,465.063 -569.803,465.079 	"/>
	<polyline fill="#772432" points="-569.803,465.079 -603.45,487.229 -595.698,473.429 -569.803,465.079 	"/>
	<text transform="matrix(1.0051 0 0 1 -471.2979 472.8828)"><tspan x="0" y="0" fill="#FFFFFF" font-family="'Myriad-Bold'" font-size="15">S</tspan><tspan x="8.1" y="0" fill="#FFFFFF" font-family="'Myriad-Bold'" font-size="13">E</tspan><tspan x="15.042" y="0" fill="#FFFFFF" font-family="'Myriad-Bold'" font-size="13">RVICES</tspan></text>
	<text transform="matrix(1.0051 0 0 1 -470.666 458.3228)"><tspan x="0" y="0" fill="#FFFFFF" font-family="'Myriad-Bold'" font-size="15">F</tspan><tspan x="7.905" y="0" fill="#FFFFFF" font-family="'Myriad-Bold'" font-size="13">I</tspan><tspan x="11.61" y="0" fill="#FFFFFF" font-family="'Myriad-Bold'" font-size="13">NANCIAL</tspan></text>
	<text transform="matrix(1.0051 0 0 1 -471.2979 487.7368)"><tspan x="0" y="0" fill="#FFFFFF" font-family="'Myriad-Bold'" font-size="15">C</tspan><tspan x="8.925" y="0" fill="#FFFFFF" font-family="'Myriad-Bold'" font-size="13">E</tspan><tspan x="15.867" y="0" fill="#FFFFFF" font-family="'Myriad-Bold'" font-size="13">NTER</tspan></text>
	<rect x="-481" y="438.848" fill="#FFFFFF" width="1" height="59"/>
</g>
</svg>
